<?xml version="1.0" encoding="utf-8"?>
<!-- Generator: Adobe Illustrator 27.7.0, SVG Export Plug-In . SVG Version: 6.00 Build 0)  -->
<svg version="1.1" id="Layer_1" xmlns="http://www.w3.org/2000/svg" xmlns:xlink="http://www.w3.org/1999/xlink" x="0px" y="0px"
	 viewBox="0 0 50 50" style="enable-background:new 0 0 50 50;" xml:space="preserve">
<style type="text/css">
	.st0{fill:#FFFFFF;}
</style>
<path class="st0" d="M13.2,22.1c-0.1,0.6-0.2,1.3-0.2,2c0,1.3,0.2,2.5,0.6,3.7l2.6-1c-0.3-0.9-0.5-1.9-0.5-3c0-0.3,0-0.7,0.1-1
	C15.8,22.8,13.2,22.1,13.2,22.1z M15.8,16.4c-1.1,1.3-1.9,2.9-2.4,4.6l2.5,0.7c0.3-1.4,0.9-2.6,1.8-3.7
	C17.7,18.1,15.8,16.4,15.8,16.4z M18.4,17.3c1.2-1.2,2.8-2.1,4.6-2.5l-1-2.3c-2.1,0.5-3.9,1.6-5.4,3.1L18.4,17.3L18.4,17.3z
	 M14,28.9c0.6,1.4,1.4,2.6,2.5,3.7c0.7,0.7,1.5,1.3,2.4,1.9l1.5-2.6c-1.7-0.9-3-2.4-3.9-4.2L14,28.9L14,28.9z M20,35
	c1.5,0.7,3.2,1.1,5,1.1c0.2,0,0.4,0,0.7,0l-0.4-3.1c-0.1,0-0.3,0-0.4,0c-1.2,0-2.4-0.2-3.4-0.7L20,35z M26.7,36
	c2.3-0.3,4.5-1.3,6.3-2.9l-2.2-2.3c-1.3,1.1-2.8,1.8-4.5,2.1C26.3,32.8,26.7,36,26.7,36z M33.7,32.3c1.4-1.5,2.4-3.3,2.9-5.3l-3-0.4
	c-0.4,1.4-1.2,2.6-2.2,3.7L33.7,32.3L33.7,32.3z M36.8,26.1c0.1-0.6,0.2-1.3,0.2-2c0-1.7-0.4-3.4-1-4.9l-2.5,1.5c0.3,1,0.5,2,0.5,3
	c0,0.7-0.1,1.3-0.2,2L36.8,26.1L36.8,26.1z M35.4,18.2c-1.2-2-2.9-3.7-5-4.7l-1.3,2.3c1.7,0.9,3.1,2.3,3.9,4.1L35.4,18.2z M29.5,13
	c-1.4-0.6-2.9-0.9-4.5-0.9c-0.7,0-1.3,0.1-1.9,0.2l0.9,2.4c0.3,0,0.6,0,0.9,0c1.3,0,2.5,0.3,3.6,0.7L29.5,13L29.5,13z M3.5,19.6
	C3.2,21,3.1,22.5,3.1,24c0,2.6,0.5,5.2,1.3,7.6l7.9-3.2c-0.4-1.3-0.6-2.7-0.6-4.1c0-0.8,0.1-1.7,0.2-2.5
	C11.9,21.8,3.5,19.6,3.5,19.6z M8.2,9.8c-2,2.4-3.5,5.2-4.4,8.3l8.3,2.5c0.5-1.9,1.5-3.6,2.7-5L8.2,9.8L8.2,9.8z M15.7,14.8
	c1.6-1.6,3.6-2.7,5.9-3.3l-3.5-8.5c-3.4,1.1-6.4,3.1-8.8,5.6L15.7,14.8z M5.1,33.2c1.1,2.3,2.6,4.5,4.4,6.4c1.4,1.4,2.9,2.6,4.6,3.5
	l4.1-7.4c-1-0.6-1.9-1.3-2.7-2.1c-1.2-1.2-2.1-2.6-2.8-4.1L5.1,33.2L5.1,33.2z M15.4,43.8c3,1.5,6.3,2.2,9.7,2.2
	c0.6,0,1.1,0,1.7-0.1l-1-8.6c-0.3,0-0.6,0-1,0c-1.9,0-3.8-0.4-5.5-1.2L15.4,43.8L15.4,43.8z M28.1,45.8c4.4-0.6,8.6-2.5,11.9-5.6
	l-6.3-6.3c-1.9,1.8-4.3,2.9-6.9,3.3C26.9,37.3,28.1,45.8,28.1,45.8z M41.1,39.2c2.9-3,4.8-6.7,5.6-10.6l-9.1-1.4
	c-0.5,2.2-1.6,4.3-3.2,6L41.1,39.2L41.1,39.2z M47,27c0.1-1,0.2-2,0.2-3.1c0-3.7-0.9-7.2-2.5-10.2l-7.9,5c0.8,1.7,1.2,3.5,1.2,5.5
	c0,0.6,0,1.3-0.1,1.9L47,27L47,27z M43.9,12.3c-2.1-3.3-5-6-8.4-7.9l-4.5,8.1c2.2,1.1,4.1,2.9,5.3,5L43.9,12.3L43.9,12.3z M33.9,3.7
	c-2.7-1.2-5.6-1.8-8.7-1.8c-2,0-3.9,0.3-5.7,0.7l3.3,8.6c0.7-0.1,1.4-0.2,2.1-0.2c1.8,0,3.5,0.4,5.1,1L33.9,3.7L33.9,3.7z M25,1
	c6.4,0,12.4,2.5,17,7s7,10.6,7,17c0,6.4-2.5,12.4-7,17c-4.5,4.5-10.6,7-17,7s-12.4-2.5-17-7c-4.5-4.5-7-10.6-7-17
	C1,11.8,11.8,1,25,1L25,1z"/>
</svg>
