<?xml version="1.0" encoding="utf-8"?>
<!-- Generator: Adobe Illustrator 27.7.0, SVG Export Plug-In . SVG Version: 6.00 Build 0)  -->
<svg version="1.1" id="Layer_1" xmlns="http://www.w3.org/2000/svg" xmlns:xlink="http://www.w3.org/1999/xlink" x="0px" y="0px"
	 viewBox="0 0 50 50" style="enable-background:new 0 0 50 50;" xml:space="preserve">
<style type="text/css">
	.st0{fill:#FFFFFF;}
</style>
<path class="st0" d="M14.1,20.9c0,0,5.9-3.1,13.2-3.1c9.9,0,20,5.5,21.7,14.7c0,0-5.2-13.3-21.2-13.3c-7.2,0-11.3,3.1-11.3,3.1
	l5.9,0.1l-7.9,1.9l4.8,5.1l-6.1-3.5l1.5,6.9l-3.2-5.9l-4.3,7.7l2.5-8.7l-8.7,2l8.1-4l-5.2-4.5l6.3,2.7l-0.8-5.3l2.5,5.1l3.5-6.4
	L14.1,20.9L14.1,20.9z"/>
</svg>
