<?xml version="1.0" encoding="utf-8"?>
<!-- Generator: Adobe Illustrator 27.7.0, SVG Export Plug-In . SVG Version: 6.00 Build 0)  -->
<svg version="1.1" id="Layer_1" xmlns="http://www.w3.org/2000/svg" xmlns:xlink="http://www.w3.org/1999/xlink" x="0px" y="0px"
	 viewBox="0 0 50 50" style="enable-background:new 0 0 50 50;" xml:space="preserve">
<style type="text/css">
	.st0{fill:#FFFFFF;}
</style>
<path class="st0" d="M33,6.4c0.3,0.3,0.4,0.6,0.4,1.1c-0.6,0.5-0.9,1.2-0.8,2.3c9.8,24.9,13.9,30.9,16.1,33c0.3,0.6,0.3,0.9,0,0.9
	H31.9c-0.5,0-0.6-0.3-0.5-0.9c0.8-1.1,1.2-2.4,1.2-3.7c0-2-12.8-30.4-14.1-31.1c-0.9-0.5-1-1-0.4-1.6C18.1,6.4,33,6.4,33,6.4z
	 M7.8,30.8c-0.2,0-0.2,0.1-0.2,0.3c0,3.5-2.6,6.7-6.3,11.5c-0.4,0.3-0.4,0.6,0,0.8c5.3,0,8.9,0,10.9,0c0.3,0,0.3-0.2,0.3-0.3
	c-0.3-3.1-0.8-6.2-2.1-9.1C10,33.1,8.9,31,7.8,30.8L7.8,30.8z M13.8,9.4c0,0-0.6,0.4-0.6,2.3C13,20,12.3,22.7,12.3,22.7l-1.3,0.2
	c0,0-0.5-1.7-0.7-4.8c-0.2-3.1-0.2-5.5-0.7-5.5c-0.4,0-0.5,2.6-0.7,5.5c-0.2,2.9-0.5,5.4-0.5,5.4l-1.4,0.5c0,0-0.5-1.9-0.9-3.6
	c-0.3-1.7-0.4-3.6-0.6-3.6c-0.2,0-0.6,1.3-0.7,4.8c-0.2,3.4-0.2,4.1-0.2,4.1s4.6,1.7,6.3,5.9c1.8,4.3,2.2,8,2.2,8.4
	c0,0.6,0.5,0.7,0.5,0.7s0.4-0.1,0.5-0.7c0.1-0.4,0.5-4.1,2.2-8.4c1.8-4.3,6.3-5.9,6.3-5.9s0-0.7-0.2-4.1c-0.2-3.4-0.5-4.8-0.7-4.8
	c-0.2,0-0.3,1.9-0.6,3.6c-0.3,1.7-0.9,3.6-0.9,3.6l-1.4-0.5c0,0-0.4-2.4-0.5-5.4c-0.2-2.9-0.3-5.5-0.7-5.5c-0.4,0-0.5,2.4-0.7,5.5
	c-0.2,3.1-0.7,4.8-0.7,4.8l-1.3-0.2c0,0-0.6-2.7-0.9-10.9C14.4,9.8,13.8,9.4,13.8,9.4L13.8,9.4z"/>
</svg>
