<?xml version="1.0" encoding="utf-8"?>
<!-- Generator: Adobe Illustrator 27.7.0, SVG Export Plug-In . SVG Version: 6.00 Build 0)  -->
<svg version="1.1" id="Layer_1" xmlns="http://www.w3.org/2000/svg" xmlns:xlink="http://www.w3.org/1999/xlink" x="0px" y="0px"
	 viewBox="0 0 50 50" style="enable-background:new 0 0 50 50;" xml:space="preserve">
<style type="text/css">
	.st0{fill:#FFFFFF;}
</style>
<path class="st0" d="M49,8.5c0,1.7-1.3,3.2-3.6,4.5c-2.7,1.5-6.8,2.6-11.5,2.9c-0.3-0.2-0.7-0.3-1.1-0.5C29.2,13.9,24.3,13,19,13
	c-0.8,0-1.5,0-2.3,0.1L16.6,13c-2.3-1.3-3.6-2.8-3.6-4.5C13,4.4,21.1,1,31,1S49,4.4,49,8.5z M16.1,16.1C17,16,18,16,19,16
	c5.8,0,11,1.2,14.3,2.9c2.3,1.3,3.7,2.8,3.7,4.6c0,0.4-0.1,0.7-0.2,1.1c-0.4,1.2-1.6,2.4-3.3,3.3l0,0l0,0l0,0l0,0h-0.1
	c-3.3,1.8-8.5,3-14.4,3c-5.6,0-10.6-1.1-13.9-2.7c-0.2-0.1-0.3-0.2-0.5-0.3C2.3,26.7,1,25.2,1,23.5c0-3.3,5-6,12-7.1
	C14,16.3,15,16.2,16.1,16.1z M40,23.5c0-2.1-1-3.7-2.3-5c2.7-0.4,5.1-1.1,7.1-1.9c1.5-0.6,3-1.4,4.1-2.4v3.3c0,1.8-1.5,3.5-4.1,4.8
	c-1.4,0.7-3,1.3-4.9,1.7C40,23.8,40,23.7,40,23.5L40,23.5z M37,32.5c0,1.7-1.3,3.2-3.6,4.5c-0.2,0.1-0.3,0.2-0.5,0.3
	C29.6,38.9,24.6,40,19,40c-5.9,0-11.1-1.2-14.4-3C2.3,35.7,1,34.2,1,32.5v-3.3c1.2,1,2.6,1.8,4.1,2.4C8.8,33.1,13.7,34,19,34
	s10.2-0.9,13.9-2.4c0.7-0.3,1.4-0.6,2.1-1c0.6-0.3,1.1-0.7,1.6-1.1c0.1-0.1,0.3-0.2,0.4-0.3v0.3V30V32.5z M40,32.5v-3v-2.4
	c1.8-0.4,3.4-0.9,4.9-1.5s3-1.4,4.1-2.4v3.3c0,1-0.5,2-1.4,2.9c-1.5,1.5-4.2,2.8-7.6,3.6C40,32.8,40,32.7,40,32.5z M19,43
	c5.3,0,10.2-0.9,13.9-2.4c1.5-0.6,3-1.4,4.1-2.4v3.3c0,4.1-8.1,7.5-18,7.5S1,45.6,1,41.5v-3.3c1.2,1,2.6,1.8,4.1,2.4
	C8.8,42.1,13.7,43,19,43z"/>
</svg>
