<?xml version="1.0" encoding="utf-8"?>
<!-- Generator: Adobe Illustrator 27.7.0, SVG Export Plug-In . SVG Version: 6.00 Build 0)  -->
<svg version="1.1" id="Layer_1" xmlns="http://www.w3.org/2000/svg" xmlns:xlink="http://www.w3.org/1999/xlink" x="0px" y="0px"
	 viewBox="0 0 50 50" style="enable-background:new 0 0 50 50;" xml:space="preserve">
<style type="text/css">
	.st0{fill:#FFFFFF;}
</style>
<path class="st0" d="M1,23.9C1,17.9,5.9,13,11.9,13c2.9,0,5.7,1.1,7.7,3.2l5.4,5.4l5.4-5.4c2-2,4.8-3.2,7.7-3.2
	c6,0,10.9,4.9,10.9,10.9v2.2c0,6-4.9,10.9-10.9,10.9c-2.9,0-5.7-1.1-7.7-3.2L25,28.4l-5.4,5.4c-2,2-4.8,3.2-7.7,3.2
	C5.9,37,1,32.1,1,26.1V23.9z M21.6,25l-5.4-5.4c-1.1-1.1-2.7-1.8-4.3-1.8c-3.4,0-6.1,2.7-6.1,6.1v2.2c0,3.4,2.7,6.1,6.1,6.1
	c1.6,0,3.2-0.6,4.3-1.8L21.6,25z M28.4,25l5.4,5.4c1.1,1.1,2.7,1.8,4.3,1.8c3.4,0,6.1-2.7,6.1-6.1v-2.2c0-3.4-2.7-6.1-6.1-6.1
	c-1.6,0-3.2,0.6-4.3,1.8L28.4,25L28.4,25z"/>
</svg>
