<?xml version="1.0" encoding="utf-8"?>
<!-- Generator: Adobe Illustrator 27.7.0, SVG Export Plug-In . SVG Version: 6.00 Build 0)  -->
<svg version="1.1" id="Layer_1" xmlns="http://www.w3.org/2000/svg" xmlns:xlink="http://www.w3.org/1999/xlink" x="0px" y="0px"
	 viewBox="0 0 50 50" style="enable-background:new 0 0 50 50;" xml:space="preserve">
<style type="text/css">
	.st0{fill:#FFFFFF;}
</style>
<path class="st0" d="M25,49c13.3,0,24-10.7,24-24S38.3,1,25,1S1,11.7,1,25S11.7,49,25,49z M10.1,30.4c-0.4-1.3,0.7-2.4,2-2.4h25.8
	c1.3,0,2.4,1.2,2,2.4c-1.8,6.4-7.8,11.1-14.9,11.1S11.9,36.8,10.1,30.4z M21.4,21L21.4,21L21.4,21L21.4,21c0,0-0.1-0.1-0.1-0.1
	c-0.1-0.1-0.1-0.2-0.3-0.3c-0.2-0.3-0.6-0.6-1-1c-0.8-0.7-1.8-1.3-2.6-1.3c-0.8,0-1.8,0.6-2.6,1.3c-0.4,0.3-0.7,0.7-1,1
	c-0.1,0.1-0.2,0.2-0.3,0.3c0,0-0.1,0.1-0.1,0.1l0,0l0,0l0,0l0,0c-0.2,0.3-0.5,0.4-0.8,0.3c-0.3-0.1-0.5-0.4-0.5-0.7
	c0-1.7,0.6-3.3,1.6-4.6c0.9-1.2,2.2-2.2,3.7-2.2c1.5,0,2.8,1,3.7,2.2c0.9,1.2,1.6,2.9,1.6,4.6c0,0.3-0.2,0.6-0.5,0.7
	C21.9,21.3,21.6,21.2,21.4,21L21.4,21L21.4,21L21.4,21z M36.4,21L36.4,21L36.4,21c0,0-0.1-0.1-0.1-0.1c-0.1-0.1-0.2-0.2-0.3-0.3
	c-0.2-0.3-0.6-0.6-1-1c-0.8-0.7-1.8-1.3-2.6-1.3s-1.8,0.6-2.6,1.3c-0.4,0.3-0.7,0.7-1,1c-0.1,0.1-0.2,0.2-0.3,0.3
	c0,0-0.1,0.1-0.1,0.1l0,0l0,0l0,0l0,0c-0.2,0.3-0.5,0.4-0.8,0.3c-0.3-0.1-0.5-0.4-0.5-0.7c0-1.7,0.6-3.3,1.6-4.6
	c0.9-1.2,2.2-2.2,3.7-2.2c1.5,0,2.8,1,3.7,2.2c0.9,1.2,1.6,2.9,1.6,4.6c0,0.3-0.2,0.6-0.5,0.7C36.9,21.3,36.6,21.2,36.4,21L36.4,21
	L36.4,21L36.4,21L36.4,21z"/>
</svg>
