<?xml version="1.0" encoding="utf-8"?>
<!-- Generator: Adobe Illustrator 27.7.0, SVG Export Plug-In . SVG Version: 6.00 Build 0)  -->
<svg version="1.1" id="Layer_1" xmlns="http://www.w3.org/2000/svg" xmlns:xlink="http://www.w3.org/1999/xlink" x="0px" y="0px"
	 viewBox="0 0 50 50" style="enable-background:new 0 0 50 50;" xml:space="preserve">
<style type="text/css">
	.st0{fill:#FFFFFF;}
</style>
<path class="st0" d="M38,33.5c5.4,4.2,7.2,4.4,11,4.5c-2.3,2.2-5.6,5.3-8.8,8.3l-30.3,0L1,37.9c4.5-0.2,4.9,0.3,10.8-4.4H38z
	 M38,29.8c1.3-2,4.2-4.5,8.8-4.8c-0.5-8.3-3.9-13.2-6.8-16c-2.8-2.7-6.5-4.6-10.2-5.2c1,1.2,2.5,3.2,2.5,5.9c0,4.2-3.3,7.5-7.4,7.5
	c-4.2,0-7.4-3.2-7.4-7.4c0-2.7,1.3-4.6,2.4-5.9c-4.1,0.6-7.9,2.7-10.8,5.9c-1.9,2.1-3.3,4.5-4.4,7.3c-0.9,2.5-1.4,5.2-1.6,8
	c2.7,0.2,7,1.2,8.6,4.8L38,29.8L38,29.8z"/>
</svg>
