<?xml version="1.0" encoding="utf-8"?>
<!-- Generator: Adobe Illustrator 27.7.0, SVG Export Plug-In . SVG Version: 6.00 Build 0)  -->
<svg version="1.1" id="Layer_1" xmlns="http://www.w3.org/2000/svg" xmlns:xlink="http://www.w3.org/1999/xlink" x="0px" y="0px"
	 viewBox="0 0 50 50" style="enable-background:new 0 0 50 50;" xml:space="preserve">
<style type="text/css">
	.st0{fill:#FFFFFF;}
</style>
<g>
	<path class="st0" d="M25,6c0,0.1,0.1,0.2,0.1,0.3c0.1,0.5,0.1,1.1,0.1,1.6c0.1,1.4,0.2,2.8,0.3,4.2c0.1,2.3,0.3,4.6,0.7,6.9
		c0.2,1.1,0.4,2.2,0.7,3.2c0.4,0,0.9,0.1,1.3,0.1c0.2-0.6,0.3-1.3,0.4-2c0.1-0.6,0.2-1.2,0.3-1.9c0.3-2.4,0.5-4.9,0.7-7.3
		c0.1-0.5,0.1-1,0.2-1.5c0,0.1,0.1,0.2,0.1,0.3c0,0.3,0.1,0.7,0.1,1c0.2,2.3,0.4,4.5,0.7,6.8c0.1,1,0.3,2.1,0.5,3.1
		c0.1,0.7,0.3,1.3,0.5,2c0.4,0.1,0.8,0.3,1.2,0.4c0.1-0.3,0.2-0.6,0.3-0.9c0.2-0.8,0.4-1.5,0.5-2.3c0.3-1.7,0.5-3.4,0.7-5
		c0.1-0.4,0.1-0.8,0.2-1.1c0.1,0.2,0.1,0.3,0.1,0.5c0.1,0.8,0.2,1.5,0.3,2.3c0.1,0.8,0.2,1.7,0.2,2.5c0,0,0,0,0,0c0,0.1,0,0.2,0,0.3
		c0.2,2,0.3,4,0.5,6c-1.1,0.4-2.2,1-3.2,1.7c-1.3,1-2.5,2.1-3.4,3.5c-1,1.4-1.8,2.9-2.3,4.5c-0.7,2-1.1,4.1-1.3,6.2
		c-0.1,0.7-0.1,1.3-0.2,2c0,0.2,0,0.4-0.1,0.5h0c-0.1-0.1-0.1-0.3-0.1-0.4c-0.1-0.4-0.1-0.9-0.1-1.3c-0.1-1.2-0.2-2.3-0.5-3.5
		c-0.4-1.9-0.9-3.7-1.7-5.5c-1-2-2.3-3.8-4-5.2c-1.2-1.1-2.7-1.9-4.2-2.5c0.2-2.8,0.4-5.6,0.7-8.4c0.1-0.9,0.2-1.8,0.3-2.7
		c0-0.2,0-0.3,0.1-0.5c0,0,0,0,0,0c0.1,0.3,0.1,0.7,0.2,1c0.2,1.3,0.3,2.6,0.5,3.9c0.1,1,0.3,2.1,0.6,3.1c0.1,0.4,0.2,0.9,0.4,1.3
		c0.4-0.2,0.8-0.3,1.2-0.4c0.2-0.4,0.3-0.8,0.4-1.2c0.1-0.6,0.3-1.3,0.4-2c0.4-2.7,0.7-5.4,0.9-8.2c0-0.5,0.1-1,0.2-1.5
		c0-0.2,0-0.3,0.1-0.5c0.1,0.3,0.1,0.7,0.1,1c0.2,2.3,0.4,4.6,0.7,6.9c0.1,1.1,0.3,2.2,0.5,3.3c0.1,0.5,0.2,0.9,0.3,1.4
		c0.4,0,0.9-0.1,1.3-0.1c0.3-1,0.5-2.1,0.7-3.1c0.2-1.2,0.3-2.4,0.4-3.6c0.2-2,0.3-4.1,0.4-6.1c0.1-0.9,0.1-1.8,0.2-2.7
		C24.9,6.4,24.9,6.2,25,6L25,6z"/>
	<path class="st0" d="M43.3,19.8c0,0,0,0.1,0,0.1c0,0.2,0.1,0.5,0.1,0.7c0,0.7,0.1,1.3,0.1,2c0.1,1.1,0.2,2.2,0.3,3.3
		c0.1,0.5,0.2,1,0.3,1.5c0.2,0,0.4,0,0.6,0.1c0.1-0.3,0.2-0.6,0.2-0.9c0-0.3,0.1-0.6,0.1-0.9c0.1-1.1,0.2-2.3,0.3-3.4
		c0-0.2,0-0.5,0.1-0.7c0,0.1,0,0.1,0,0.2c0,0.2,0,0.3,0.1,0.5c0.1,1.1,0.2,2.2,0.3,3.2c0.1,0.5,0.1,1,0.2,1.5
		c0.1,0.3,0.1,0.6,0.2,0.9c0.2,0.1,0.4,0.1,0.6,0.2c0.1-0.1,0.1-0.3,0.1-0.4c0.1-0.4,0.2-0.7,0.2-1.1c0.1-0.8,0.2-1.6,0.3-2.4
		c0-0.2,0-0.4,0.1-0.5c0,0.1,0,0.2,0,0.2c0.1,0.4,0.1,0.7,0.1,1.1c0,0.4,0.1,0.8,0.1,1.2c0,0,0,0,0,0c0,0.1,0,0.1,0,0.2
		c0.1,0.9,0.2,1.9,0.2,2.8c-0.5,0.2-1,0.5-1.5,0.8c-0.6,0.5-1.2,1-1.6,1.6c-0.5,0.7-0.8,1.4-1.1,2.1c-0.3,1-0.5,2-0.6,3
		c0,0.3-0.1,0.6-0.1,0.9c0,0.1,0,0.2-0.1,0.2h0c0-0.1,0-0.1,0-0.2c0-0.2,0-0.4-0.1-0.6c0-0.6-0.1-1.1-0.2-1.7
		c-0.2-0.9-0.4-1.8-0.8-2.6c-0.5-0.9-1.1-1.8-1.9-2.5c-0.6-0.5-1.3-0.9-2-1.2c0.1-1.3,0.2-2.6,0.3-4c0-0.4,0.1-0.9,0.1-1.3
		c0-0.1,0-0.2,0-0.2c0,0,0,0,0,0c0,0.2,0.1,0.3,0.1,0.5c0.1,0.6,0.1,1.2,0.2,1.9c0.1,0.5,0.1,1,0.3,1.5c0.1,0.2,0.1,0.4,0.2,0.6
		c0.2-0.1,0.4-0.1,0.6-0.2c0.1-0.2,0.1-0.4,0.2-0.6c0.1-0.3,0.1-0.6,0.2-0.9c0.2-1.3,0.3-2.6,0.4-3.9c0-0.2,0-0.5,0.1-0.7
		c0-0.1,0-0.1,0-0.2c0,0.2,0,0.3,0.1,0.5c0.1,1.1,0.2,2.2,0.3,3.3c0.1,0.5,0.1,1,0.2,1.6c0,0.2,0.1,0.4,0.2,0.6c0.2,0,0.4,0,0.6-0.1
		c0.2-0.5,0.2-1,0.3-1.5c0.1-0.6,0.1-1.1,0.2-1.7c0.1-1,0.1-1.9,0.2-2.9c0-0.4,0-0.9,0.1-1.3C43.3,20,43.3,19.9,43.3,19.8L43.3,19.8
		z"/>
	<path class="st0" d="M6.7,19.8c0,0,0,0.1,0,0.1c0,0.2,0.1,0.5,0.1,0.7c0,0.7,0.1,1.3,0.1,2C7,23.8,7,24.9,7.2,26
		c0.1,0.5,0.2,1,0.3,1.5c0.2,0,0.4,0,0.6,0.1c0.1-0.3,0.2-0.6,0.2-0.9c0-0.3,0.1-0.6,0.1-0.9c0.1-1.1,0.2-2.3,0.3-3.4
		c0-0.2,0-0.5,0.1-0.7c0,0.1,0,0.1,0,0.2c0,0.2,0,0.3,0.1,0.5c0.1,1.1,0.2,2.2,0.3,3.2c0.1,0.5,0.1,1,0.2,1.5
		c0.1,0.3,0.1,0.6,0.2,0.9c0.2,0.1,0.4,0.1,0.6,0.2c0.1-0.1,0.1-0.3,0.1-0.4c0.1-0.4,0.2-0.7,0.2-1.1c0.1-0.8,0.2-1.6,0.3-2.4
		c0-0.2,0-0.4,0.1-0.5c0,0.1,0,0.2,0,0.2c0.1,0.4,0.1,0.7,0.1,1.1c0,0.4,0.1,0.8,0.1,1.2c0,0,0,0,0,0c0,0.1,0,0.1,0,0.2
		c0.1,0.9,0.2,1.9,0.2,2.8c-0.5,0.2-1,0.5-1.5,0.8c-0.6,0.5-1.2,1-1.6,1.6c-0.5,0.7-0.8,1.4-1.1,2.1c-0.3,1-0.5,2-0.6,3
		c0,0.3-0.1,0.6-0.1,0.9c0,0.1,0,0.2-0.1,0.2h0c0-0.1,0-0.1,0-0.2c0-0.2,0-0.4-0.1-0.6c0-0.6-0.1-1.1-0.2-1.7
		c-0.2-0.9-0.4-1.8-0.8-2.6c-0.5-0.9-1.1-1.8-1.9-2.5c-0.6-0.5-1.3-0.9-2-1.2c0.1-1.3,0.2-2.6,0.3-4c0-0.4,0.1-0.9,0.1-1.3
		c0-0.1,0-0.2,0-0.2c0,0,0,0,0,0c0,0.2,0.1,0.3,0.1,0.5c0.1,0.6,0.1,1.2,0.2,1.9c0.1,0.5,0.1,1,0.3,1.5c0.1,0.2,0.1,0.4,0.2,0.6
		c0.2-0.1,0.4-0.1,0.6-0.2c0.1-0.2,0.1-0.4,0.2-0.6c0.1-0.3,0.1-0.6,0.2-0.9c0.2-1.3,0.3-2.6,0.4-3.9c0-0.2,0-0.5,0.1-0.7
		c0-0.1,0-0.1,0-0.2c0,0.2,0,0.3,0.1,0.5c0.1,1.1,0.2,2.2,0.3,3.3c0.1,0.5,0.1,1,0.2,1.6c0,0.2,0.1,0.4,0.2,0.6c0.2,0,0.4,0,0.6-0.1
		C6,27,6.1,26.5,6.1,26c0.1-0.6,0.1-1.1,0.2-1.7c0.1-1,0.1-1.9,0.2-2.9c0-0.4,0-0.9,0.1-1.3C6.6,20,6.6,19.9,6.7,19.8L6.7,19.8z"/>
</g>
</svg>
