<?xml version="1.0" encoding="utf-8"?>
<!-- Generator: Adobe Illustrator 27.7.0, SVG Export Plug-In . SVG Version: 6.00 Build 0)  -->
<svg version="1.1" id="Layer_1" xmlns="http://www.w3.org/2000/svg" xmlns:xlink="http://www.w3.org/1999/xlink" x="0px" y="0px"
	 viewBox="0 0 50 50" style="enable-background:new 0 0 50 50;" xml:space="preserve">
<style type="text/css">
	.st0{fill:#FFFFFF;}
</style>
<g>
	<path class="st0" d="M35.6,37.8v-30c0,0-0.1-0.5-0.5-0.5H14.9c0,0-0.4,0.1-0.4,0.5v30c0,0,0,0.6,0.4,0.6h20.2
		C35.1,38.4,35.6,38.3,35.6,37.8z M29.8,30.8c-1.1,0-2-0.5-2.6-1.4l-2.3-3.3l-2.3,3.3c-0.6,0.9-1.5,1.4-2.6,1.4
		c-1.1,0-2.9-0.6-2.9-2.2c0-0.5,0.3-1,0.7-1.5l3.6-4.6l-3.3-4.2c-0.4-0.5-0.5-0.9-0.5-1.3c0-1.4,1.3-2.3,2.7-2.3
		c0.9,0,1.9,0.3,2.4,1.1l2.1,3.2l2.1-3.2c0.5-0.8,1.5-1.1,2.4-1.1c1.4,0,2.7,0.9,2.7,2.3c0,0.4-0.2,0.8-0.5,1.3l-3.3,4.2l3.6,4.6
		c0.4,0.5,0.7,0.9,0.7,1.5C32.6,30.2,30.9,30.8,29.8,30.8z"/>
	<path class="st0" d="M13,38V10.1l-9.1,2.5c-0.7,0.2-0.4,1.1-0.4,1.1l7.6,28.6c0.3,0.7,0.9,0.4,0.9,0.4l10.5-2.9h-7.8
		C13.2,39.8,13,38,13,38z"/>
	<path class="st0" d="M46.2,12.5L37,10v28c0,0-0.3,1.8-1.7,1.8h-7.8L38,42.7c0,0,0.6,0.3,0.9-0.4l7.7-28.7
		C46.6,13.6,46.9,12.7,46.2,12.5z"/>
	<path class="st0" d="M47.2,10.4l-9.4-2.6c0-2.6-2.5-2.9-2.5-2.9H14.6c0,0-2.5,0.3-2.5,2.9l-9.4,2.6c0,0-2.3,0.9-1.6,4l7.8,29
		c0,0,1.6,2.1,3.5,1.6L25,41.6L37.5,45c1.9,0.6,3.5-1.6,3.5-1.6l7.8-29C49.6,11.3,47.2,10.4,47.2,10.4z M47.7,14.1
		c0,0.1-7.6,28.3-7.7,28.8c-0.3,0.4-1.3,1.4-2.2,1.1L25,40.5L12.2,44c-0.9,0.3-1.9-0.7-2.2-1.1c-0.1-0.5-7.7-28.8-7.7-28.8
		c-0.1-0.4-0.1-0.6-0.1-0.9c0-1.2,0.7-1.7,1-1.8c0.1,0,10.1-2.8,10.1-2.8V7.8c0-0.7,0.2-1.2,0.7-1.5C14.3,6.1,14.7,6,14.8,6h20.4
		c0.1,0,0.5,0.1,0.8,0.3c0.5,0.3,0.7,0.8,0.7,1.5v0.8c0,0,10,2.8,10.1,2.8c0.2,0.1,1,0.6,1,1.8C47.8,13.5,47.8,13.8,47.7,14.1z"/>
</g>
</svg>
