<?xml version="1.0" encoding="utf-8"?>
<!-- Generator: Adobe Illustrator 27.7.0, SVG Export Plug-In . SVG Version: 6.00 Build 0)  -->
<svg version="1.1" id="Layer_1" xmlns="http://www.w3.org/2000/svg" xmlns:xlink="http://www.w3.org/1999/xlink" x="0px" y="0px"
	 viewBox="0 0 50 50" style="enable-background:new 0 0 50 50;" xml:space="preserve">
<style type="text/css">
	.st0{fill:#FFFFFF;}
</style>
<g>
	<path class="st0" d="M24.9,19.2c-0.7,0-1.4,0.3-2,1.3c-0.7,1.2-1.1,1.4-1.9,1.4c-1.2,0-2.1-0.7-2.1-2.1c0-1.7,1.9-4.5,6.1-4.5
		c4.3,0,6.3,2.5,6.3,5.3c0,4.4-4.1,4.4-4.8,6.2c-0.4,1-1,1.3-2.1,1.3c-1.3,0-1.8-0.9-1.8-2.1c0-1.5,0.9-2.4,2.1-3.1
		c1.4-0.9,1.8-1.2,1.8-2.2C26.4,19.6,25.7,19.2,24.9,19.2z M24.6,28.9c1.4,0,2.5,1.3,2.5,2.9c0,1.6-1.1,2.9-2.5,2.9
		c-1.4,0-2.5-1.3-2.5-2.9C22.1,30.2,23.2,28.9,24.6,28.9z"/>
	<path class="st0" d="M45.1,21.5c-0.4,0-0.9,0.2-1.2,0.8c-0.4,0.7-0.7,0.9-1.2,0.9c-0.7,0-1.3-0.4-1.3-1.3c0-1.1,1.2-2.8,3.7-2.8
		c2.6,0,3.9,1.5,3.9,3.2c0,2.7-2.5,2.7-2.9,3.8c-0.2,0.6-0.6,0.8-1.3,0.8c-0.8,0-1.1-0.5-1.1-1.3c0-0.9,0.6-1.5,1.3-1.9
		c0.9-0.5,1.1-0.7,1.1-1.4C46.1,21.7,45.6,21.5,45.1,21.5z M45,27.4c0.9,0,1.5,0.8,1.5,1.8s-0.7,1.8-1.5,1.8c-0.9,0-1.5-0.8-1.5-1.8
		S44.1,27.4,45,27.4z"/>
	<path class="st0" d="M4.7,21.5c-0.4,0-0.9,0.2-1.2,0.8C3,23,2.8,23.1,2.3,23.1c-0.7,0-1.3-0.4-1.3-1.3c0-1.1,1.2-2.8,3.7-2.8
		c2.6,0,3.9,1.5,3.9,3.2c0,2.7-2.5,2.7-2.9,3.8c-0.2,0.6-0.6,0.8-1.3,0.8c-0.8,0-1.1-0.5-1.1-1.3c0-0.9,0.6-1.5,1.3-1.9
		c0.9-0.5,1.1-0.7,1.1-1.4C5.7,21.7,5.2,21.5,4.7,21.5z M4.6,27.4c0.9,0,1.5,0.8,1.5,1.8s-0.7,1.8-1.5,1.8c-0.9,0-1.5-0.8-1.5-1.8
		S3.7,27.4,4.6,27.4z"/>
	<path class="st0" d="M35.8,6.6H14.2c-1.3,0-2.4,1.1-2.4,2.4v32c0,1.3,1.1,2.4,2.4,2.4h21.5c1.3,0,2.4-1.1,2.4-2.4V9
		C38.2,7.7,37.1,6.6,35.8,6.6z M15,8.3c0.8,0,1.4,0.6,1.4,1.4c0,0.8-0.6,1.4-1.4,1.4s-1.4-0.6-1.4-1.4C13.7,8.9,14.3,8.3,15,8.3z
		 M15,41.7c-0.8,0-1.4-0.6-1.4-1.4s0.6-1.4,1.4-1.4s1.4,0.6,1.4,1.4S15.8,41.7,15,41.7z M25,40.9c-6.3,0-11.3-7.1-11.3-15.9
		S18.7,9.1,25,9.1c6.3,0,11.3,7.1,11.3,15.9S31.3,40.9,25,40.9z M35,41.7c-0.8,0-1.4-0.6-1.4-1.4s0.6-1.4,1.4-1.4
		c0.8,0,1.4,0.6,1.4,1.4S35.7,41.7,35,41.7z M35,11.1c-0.8,0-1.4-0.6-1.4-1.4c0-0.8,0.6-1.4,1.4-1.4c0.8,0,1.4,0.6,1.4,1.4
		C36.3,10.5,35.7,11.1,35,11.1z"/>
</g>
</svg>
