<?xml version="1.0" encoding="utf-8"?>
<!-- Generator: Adobe Illustrator 27.7.0, SVG Export Plug-In . SVG Version: 6.00 Build 0)  -->
<svg version="1.1" id="Layer_1" xmlns="http://www.w3.org/2000/svg" xmlns:xlink="http://www.w3.org/1999/xlink" x="0px" y="0px"
	 viewBox="0 0 50 50" style="enable-background:new 0 0 50 50;" xml:space="preserve">
<style type="text/css">
	.st0{fill:#FFFFFF;}
</style>
<path class="st0" d="M35.3,4.9c0,0,2.5,0.3,2.5,2.9l9.4,2.6c0,0,2.4,0.9,1.6,4l-7.8,29c0,0-1.6,2.2-3.5,1.6L25,41.6L12.4,45
	c-1.9,0.5-3.5-1.6-3.5-1.6l-7.8-29c-0.7-3.1,1.6-4,1.6-4l9.4-2.6c0-2.6,2.5-2.9,2.5-2.9S35.3,4.9,35.3,4.9z M35.2,6H14.8
	c-0.1,0-0.5,0.1-0.8,0.3c-0.5,0.3-0.7,0.8-0.7,1.5v0.8c0,0-10,2.8-10.1,2.8c-0.3,0.1-1,0.6-1,1.8c0,0.3,0,0.5,0.1,0.9
	c0,0,7.6,28.3,7.7,28.8c0.3,0.4,1.3,1.4,2.2,1.1L25,40.5L37.8,44c0.9,0.3,1.9-0.7,2.2-1.1c0.1-0.5,7.7-28.7,7.7-28.8
	c0.1-0.3,0.1-0.6,0.1-0.9c0-1.2-0.8-1.7-1-1.8c-0.1,0-10.1-2.8-10.1-2.8V7.8c0-0.7-0.2-1.2-0.7-1.5C35.7,6.1,35.3,6,35.2,6L35.2,6
	L35.2,6z M13,10.1V38c0,0,0.2,1.8,1.7,1.8h7.8l-10.5,2.9c0,0-0.6,0.3-0.9-0.4L3.5,13.7c0,0-0.3-0.9,0.4-1.1L13,10.1L13,10.1z M37,10
	l9.2,2.5c0.7,0.2,0.4,1.1,0.4,1.1l-7.7,28.7c-0.3,0.7-0.9,0.4-0.9,0.4l-10.5-2.9h7.8c1.4,0,1.7-1.8,1.7-1.8L37,10L37,10z M35.1,7.3
	c0.4,0,0.5,0.5,0.5,0.5v30c0,0.5-0.5,0.6-0.5,0.6H14.9c-0.4,0-0.4-0.6-0.4-0.6v-30c0-0.4,0.4-0.5,0.4-0.5S35.1,7.3,35.1,7.3z
	 M30,13.6c-0.3,0-1.1,0.1-2.5,0.2c-1.4,0.2-2.6,0.2-3.7,0.2c-0.7,0-1.8,0-3.4-0.1c-1.6-0.1-3.1-0.2-4.5-0.3c0,0.6,1.3,1,3.9,1.1
	c0.5,0.2,1,0.4,1.6,0.6l-2.7,9.9c0,0,0-0.1,0-0.2l0,0l0-0.1c0,0,0,0,0,0c0,0,0,0,0,0c0,0,0,0.1,0,0.1c-0.4,1.3-0.7,2.6-1.1,4
	c-0.5,1.8-0.8,2.8-1,2.9c-0.2,0.1-0.3,0.2-0.5,0.2C16,32,15.9,32,15.8,32c-0.1,0-0.1,0-0.1,0.1c0,0.1,0,0.4,0.1,0.8l5.2-0.4
	c0-0.1,0-0.3,0-0.4s-0.1-0.3-0.3-0.4c-0.4,0-0.8,0.1-1.2,0.1c-0.4,0-0.6-0.1-0.6-0.4s-0.1-0.5-0.1-0.8c0-0.9,0.1-1.8,0.4-2.9
	c0.3-1,0.5-2,0.8-2.9c0.2-0.3,1.5-0.6,4-0.9c2.5-0.4,3.8-0.5,4-0.4c0.2,0.1,0.4,0.9,0.6,2.6s0.5,3.3,0.7,4.9
	c-0.1,0.3-0.6,0.5-1.3,0.6c-0.7,0.2-1,0.3-1,0.5c0,0.1,0.1,0.3,0.3,0.5c0,0,0.2,0,0.6-0.1c0.3-0.1,1-0.1,2.1-0.1c1.2,0,2,0,2.6,0.1
	c0.5,0.1,0.9,0.1,1.1,0.1c0.2,0,0.5,0,0.8-0.1c0.1-0.6-0.2-0.9-0.8-0.9c-0.6,0-1-0.1-1.3-0.3c-0.3-0.2-0.6-1.2-1-3.1
	c-0.4-1.8-0.6-3.4-0.8-4.6c-0.1-0.3-0.4-1.5-0.8-3.7S29,16.2,29,15.4c0-0.3,0-0.4,0-0.6c0-0.1,0.3-0.2,0.9-0.3
	c0.6-0.1,1-0.2,1.2-0.4C31.1,13.8,30.7,13.6,30,13.6L30,13.6z M25.7,15c0.2,0,0.3,0,0.4,0.1c0.1,0.1,0.4,1,0.9,2.8
	c0.5,1.8,0.7,3.2,0.7,4.1c-1,0.1-2,0.2-3.2,0.3c-1.2,0.1-2.2,0.1-3.1,0.1c-0.5,0-0.8,0-0.9-0.1c0,0,0.2-0.8,0.6-2.4
	c0.4-1.6,0.9-3.2,1.3-4.8c0.4,0,0.9,0,1.4,0c0.5,0,0.9,0,1.4,0C25.3,15,25.5,15,25.7,15L25.7,15z"/>
</svg>
