<?xml version="1.0" encoding="utf-8"?>
<!-- Generator: Adobe Illustrator 27.7.0, SVG Export Plug-In . SVG Version: 6.00 Build 0)  -->
<svg version="1.1" id="Layer_1" xmlns="http://www.w3.org/2000/svg" xmlns:xlink="http://www.w3.org/1999/xlink" x="0px" y="0px"
	 viewBox="0 0 50 50" style="enable-background:new 0 0 50 50;" xml:space="preserve">
<style type="text/css">
	.st0{fill:#FFFFFF;}
</style>
<path class="st0" d="M26.8,12.5c0.9-0.6,1.6-1.6,1.6-2.8c0-1.8-1.5-3.3-3.3-3.3s-3.3,1.5-3.3,3.3c0,1.2,0.6,2.2,1.6,2.8l-4.8,9.6
	c-0.8,1.5-2.7,1.9-4.1,0.9L7,17c0.4-0.6,0.7-1.2,0.7-2c0-1.8-1.5-3.3-3.3-3.3S1,13.2,1,15s1.5,3.3,3.3,3.3c0,0,0,0,0.1,0l3.8,20.9
	c0.5,2.5,2.7,4.4,5.2,4.4h23.1c2.6,0,4.8-1.8,5.2-4.4l3.8-20.9c0,0,0,0,0.1,0c1.8,0,3.3-1.5,3.3-3.3s-1.5-3.3-3.3-3.3
	c-1.8,0-3.3,1.5-3.3,3.3c0,0.8,0.2,1.4,0.7,2l-7.4,5.9c-1.3,1.1-3.3,0.6-4.1-0.9L26.8,12.5z"/>
</svg>
