<?xml version="1.0" encoding="utf-8"?>
<!-- Generator: Adobe Illustrator 26.0.3, SVG Export Plug-In . SVG Version: 6.00 Build 0)  -->
<svg version="1.1" id="Layer_1" xmlns="http://www.w3.org/2000/svg" xmlns:xlink="http://www.w3.org/1999/xlink" x="0px" y="0px"
	 viewBox="0 0 1000 416" style="enable-background:new 0 0 1000 416;" xml:space="preserve">
<style type="text/css">
	.st0{fill:#F0E100;}
	.st1{fill:#7D53DE;}
	.st2{fill:#FFFFFF;}
	.st3{fill:url(#SVGID_1_);}
	.st4{fill:url(#SVGID_00000049186653109373529500000014283684699291836330_);}
	.st5{fill:url(#SVGID_00000115478892016555933060000006982633378600094103_);}
	.st6{fill:url(#SVGID_00000080896843103738222040000004974745027881661836_);}
	.st7{fill:url(#SVGID_00000098936780425441698180000008791337597152433297_);}
	.st8{fill:url(#SVGID_00000166650256249714314920000003460308960049831304_);}
	.st9{fill:url(#SVGID_00000049931021138209584990000006570650304792608158_);}
	.st10{fill:url(#SVGID_00000127012614656903815250000001891610682834662273_);}
	.st11{fill:url(#SVGID_00000131361865135626718900000018375457661943666581_);}
	.st12{fill:url(#SVGID_00000142173387790797965720000009514276404094606013_);}
</style>
<g>
	<g>
		<path class="st0" d="M905.5,415.9c-3.1,0-6.3-0.2-9.6-0.7c-12.1-1.7-22.4-6.1-30.6-12.9c-3.4-2.8-6.5-6.1-9.3-9.7
			c-0.6,0.5-1.2,1-1.8,1.5c-9.3,7.2-20.9,11-33.6,11c-2.5,0-5.1-0.2-7.7-0.4c-10.8-1.2-20.3-4.7-28.2-10.5
			c-6.1,2.4-12.6,3.6-19.6,3.6c-2,0-4-0.1-6-0.3c-22.2-2.1-44.9-3.9-67.6-5.4c-11.2-0.8-21.1-3.9-29.4-9.4
			c-8.1,5.1-17.6,7.7-27.7,7.7c-0.9,0-1.8,0-2.6-0.1c-11.4-0.5-21.2-3.5-29.4-8.9c-5.8-3.8-11.2-8.9-16.5-15.5
			c-0.4-0.6-0.9-1.1-1.3-1.7c-2.3,3.5-4.9,6.7-8.1,9.6c-6.8,6.3-18.8,13.7-37.5,13.7l-0.7,0c-13.8-0.2-23.8-4.3-30.6-8.5
			c-8.7,5.5-19.1,8.3-30.8,8.4h-0.6c-15.2,0-28.6-4.9-38.7-14.3c-6.1-5.7-10.6-12.6-13.4-20.5c-0.3,0.7-0.6,1.3-0.9,2
			c-4.4,10.6-11,19.1-19.6,25.2c-8.9,6.3-19.6,9.8-32,10.4c-1.2,0-2.3,0.1-3.4,0.1c-10.8,0-20.6-2.4-29.1-7.2
			c-9.1-5.2-16.7-12.9-22.4-23c-0.4-0.8-0.9-1.5-1.3-2.3c-1.9,7.7-5.4,14.7-10.5,20.8c-6.4,7.5-18.2,16.9-38.5,18.6
			c-1.9,0.2-3.8,0.2-5.8,0.2c-13,0-24.9-3.9-34.4-11.4c-2.5-1.9-4.7-4.1-6.7-6.4c-7.8,6.8-17,12.4-27.3,17
			c-12.4,5.4-26.7,9.2-42.6,11.2c-13.1,1.7-26.2,3.4-38.9,5.2c-3.3,0.5-6.7,0.7-9.9,0.7c-11.8,0-22.3-3.1-31.3-9.2
			c-3.1-2.1-6-4.6-8.7-7.6l-19-16.6c-0.4-0.2-0.7-0.5-1.1-0.8c-3-2.1-5.8-4.6-8.3-7.5c-2.8-2.6-5.1-5.8-6.8-9.3
			c-3.6-6.3-6.1-13.5-7.4-21.4l-17.4-109c-3.4-21,3.8-35.6,10.5-44.1c6.3-8.1,18.2-18.4,39.1-21.5c14.8-2.2,30-4.4,44.9-6.4
			c8.3-1.1,16.5-1.7,24.3-1.7c23.9,0,44.9,5.3,62.7,15.8c2.1-4.4,4.7-8.4,8-12.1c9.7-11,23.3-17.5,39.6-19c2.2-0.2,4.4-0.3,6.5-0.3
			c8.5,0,16.7,1.7,24.1,4.9c8.3-5.4,18-8.6,28.8-9.3c1.6-0.1,3.1-0.2,4.6-0.2c-1.8-5-2.7-10.4-2.7-16.1V45.2
			c0-13,4.9-24.6,13.8-32.9c8.4-7.8,19.4-11.9,31.9-11.9c9.9,0,18.7,2.5,26.1,7.3c5.8,3.8,10.6,8.8,14.5,15.2
			c4.2-6.6,9-11.5,14.6-15.2c7.4-4.9,16.2-7.3,26.1-7.3c11.3,0,21.4,3.5,29.3,10.1c7.6-5.8,17-8.8,27.5-8.8h69.8
			c12.3,0,23,4.2,31.2,12c1.5,1.4,3.2,3.3,5,5.8c7.2-6,15.6-10.7,25-14c10.3-3.6,21.8-5.4,34.1-5.4c6.6,0,13.5,0.6,20.3,1.9
			c8,1.5,15.8,4.1,23.2,7.9c9.3,4.4,16.4,11.7,20.5,20.9c3.5,7.8,4.6,16.1,3.3,24.5c-0.6,4.2-1.8,8.2-3.4,12
			c3.1,6.1,4.7,13,4.7,20.4v30.8c0,8.7-2.1,16.6-6.2,23.7c4.1-0.8,8.4-1.2,12.8-1.2c1.8,0,3.6,0.1,5.5,0.2c25.7,1.8,52,4.1,78,6.6
			c13.7,1.3,23.4,6.4,29.7,11.3c7.4-3.4,15.6-5.1,24.5-5.1c2.7,0,5.6,0.2,8.4,0.5c18.7,2.2,37.7,4.7,56.4,7.2
			c27.1,3.7,48.3,14.1,62.9,30.8c15.8,18,22,41.1,17.9,66.6c-2.6,16.2-8.9,30.2-18.9,41.8c-1.3,1.5-2.6,2.9-3.9,4.2
			c1.8,4.6,3.5,9.3,5.3,14c4.1,10.9,5.1,21.8,3,32.4c-1.6,8.2-5.3,15.9-10.6,22.3c-1.3,1.8-2.9,3.4-4.6,4.8l-0.3,0.3
			c-0.7,0.6-1.8,1.6-3,2.5l-24.9,21c-0.8,0.8-1.9,1.7-3.1,2.6c-0.7,0.6-1.6,1.2-2.5,1.8c-1.1,0.8-2.2,1.5-3.3,2.1
			C924.2,413.6,915.2,415.9,905.5,415.9z"/>
		<g>
			<path d="M974.8,296.6c9.1-10.6,15-23.6,17.3-38.5c3.8-23.5-1.9-44.7-16.4-61.2c-13.5-15.4-33.3-25-58.8-28.5
				c-18.7-2.6-37.6-5-56.3-7.2c-2.6-0.3-5.1-0.5-7.6-0.5c-9.4,0-18,2.2-25.5,6.4c-5.7-5.5-15-11.3-29.3-12.7
				c-26-2.5-52.2-4.8-77.9-6.6c-1.7-0.1-3.4-0.2-5-0.2c-8.3,0-16.1,1.7-22.9,4.8l-2.2-5.5c2.5-2.3,4.6-4.9,6.4-7.8
				c3.6-6.1,5.5-13,5.5-20.6V87.7c0-7.5-1.9-14.4-5.6-20.2c2.2-4.1,3.7-8.5,4.4-13.2c1.1-7.2,0.1-14.2-2.8-20.8
				c-3.5-7.8-9.5-13.8-17.5-17.6c-6.9-3.5-14.1-5.9-21.4-7.3c-6.4-1.2-12.8-1.8-19.1-1.8c-11.6,0-22.3,1.7-31.9,5.1
				c-10.4,3.6-19.4,9.1-26.9,16.3c-0.7,0.7-1.4,1.5-2.1,2.2c-2.2-5.3-5.2-9.2-8-11.9c-6.9-6.6-16-10.1-26.5-10.1h-69.8
				c-10.5,0-19.6,3.5-26.5,10.2c-0.4,0.4-0.7,0.8-1.1,1.2c-0.6-0.7-1.2-1.3-1.8-1.9c-7.1-7-16.6-10.7-27.4-10.7
				c-8.6,0-16.1,2.1-22.4,6.2c-5.5,3.6-10,8.5-14,15.5l-4.3,7.7l-4.3-7.7c-3.7-6.8-8.3-11.8-13.9-15.5c-6.3-4.1-13.9-6.2-22.4-6.2
				c-10.7,0-20.2,3.5-27.3,10.1c-7.5,7-11.7,16.9-11.7,28v77.3c0,9.1,2.7,17.2,7.7,23.8c-3.5-0.7-7.1-1-11-1c-1.6,0-3.2,0.1-4.9,0.2
				c-11,0.8-20.7,4.3-28.7,10.4c-7.3-3.9-15.7-5.9-24.7-5.9c-2,0-4,0.1-5.9,0.3c-14.5,1.3-26.6,7.1-35.1,16.7
				c-3.4,3.9-7.4,9.8-9.7,17.9c-0.5-0.3-0.9-0.6-1.4-1c-17.7-12.1-39.5-18.3-64.6-18.3c-7.5,0-15.3,0.5-23.4,1.6
				c-14.9,2-30,4.1-44.8,6.4c-18.7,2.8-29.2,11.9-34.8,19c-5.8,7.4-12.1,20.3-9.1,38.9l17.4,109c1.1,7.2,3.4,13.7,6.7,19.3
				c1.3,2.9,3.3,5.6,5.6,7.7c2.3,2.6,4.8,4.9,7.5,6.8c0.4,0.3,0.8,0.6,1.2,0.8l19.7,17.2c2.4,2.7,5,4.9,7.8,6.8
				c7.9,5.4,17.1,8.1,27.5,8.1c2.9,0,5.9-0.2,8.9-0.6c12.8-1.8,25.9-3.6,39-5.2c15.2-1.9,28.9-5.5,40.7-10.7
				c12.1-5.3,22.5-12.3,30.9-20.8c2.7,4.3,6.1,8,10,11.1c8.3,6.5,18.8,10,30.2,10c1.8,0,3.5-0.1,5.2-0.2c18-1.5,28.4-9.7,33.9-16.2
				c7.9-9.3,11.5-21.4,10.3-34.8l-0.5-5.6c4.4,7.7,8.8,15.4,13.1,23c5.1,9,11.8,15.9,19.8,20.4c7.5,4.2,16.2,6.4,25.8,6.4
				c1,0,2.1,0,3.1-0.1c11-0.5,20.6-3.6,28.4-9.2c7.6-5.4,13.4-13,17.3-22.5c3.2-7.3,6.4-14.7,9.9-22.4l0.9,8.3
				c1,12.1,5.9,22.5,14.3,30.3c8.8,8.2,20.6,12.5,34.1,12.5h0.6c14.4-0.1,24.4-4.9,30.9-9.9c6.2,4.9,16.1,9.8,30.6,10l0.7,0
				c16.5,0,27-6.5,32.9-11.9c4-3.7,8.5-9.2,11.3-17.2c2.7,3.4,5.3,6.7,7.9,10c4.8,6,9.7,10.7,15,14.1c7.2,4.7,15.9,7.3,26,7.8
				c0.8,0,1.6,0.1,2.4,0.1c10.5,0,20-3.2,27.8-9.3c6.2,5.1,15.8,10,29.7,11c22.6,1.5,45.4,3.4,67.7,5.4c1.8,0.2,3.6,0.3,5.4,0.3
				c7.5,0,14.5-1.6,20.6-4.7c5.9,5.1,14.8,10.2,27.9,11.6c2.4,0.3,4.7,0.4,7,0.4c11.2,0,21.3-3.3,29.4-9.5c2.5-2,4.8-4.2,7-6.9
				c3.4,6.1,7.6,11.2,12.5,15.3c7.3,6,16.4,9.8,27.2,11.4c3,0.4,5.9,0.6,8.7,0.6c8.6,0,16.4-2,23.2-5.9c1.1-0.7,2.1-1.3,2.8-1.8
				c0.8-0.5,1.5-1.1,2.1-1.5c1.1-0.8,2.1-1.7,3-2.5l25.1-21.2c1-0.8,2-1.6,2.8-2.3l0.3-0.3c1.4-1.1,2.6-2.4,3.6-3.9
				c4.6-5.5,7.8-12.2,9.3-19.4c1.8-9.4,0.9-19-2.7-28.8c-2.3-6.1-4.6-12.1-6.9-18.1C970.5,301.3,972.7,299,974.8,296.6z"/>
		</g>
		<path class="st1" d="M191.9,245.1c-12.8-8.3-29-12.5-48-12.5c-6,0-12.4,0.4-18.9,1.3c-13.8,1.8-27.8,3.6-41.6,5.6
			c-8.3,1.2-14.5,4.2-18.4,9c-4,4.9-5.4,11.1-4.2,18.5L71,327.8l6,35.5c1.2,7.3,4.5,12.8,9.7,16.3c3.9,2.6,8.7,4,14.2,4
			c1.8,0,3.6-0.1,5.6-0.4c13.1-1.9,26.3-3.6,39.3-5.3c13-1.7,24.5-4.7,34.2-8.9c10-4.4,18.4-10.2,24.9-17.2
			c6.5-7.1,11.3-15.4,14.1-24.8c2.8-9.3,3.6-19.7,2.4-31C218.7,273.2,208.8,256,191.9,245.1z M168.9,317c-0.9,4.1-2.5,7.4-5,10.2
			c-2.5,2.8-5.8,5.2-9.9,7.1c-4.4,2-9.9,3.4-16.4,4.2c-4.4,0.6-8.9,1.2-13.3,1.7l-6.3-40.8l-3.7-23.8c4.6-0.6,9.2-1.2,13.8-1.8
			c3.4-0.4,6.6-0.7,9.6-0.7c8.2,0,14.8,1.7,19.6,4.9c6.4,4.3,10.4,12.3,11.8,23.6C169.9,307.5,169.8,312.7,168.9,317z"/>
		<path class="st1" d="M277.6,240.5c-0.7-7.4-3.5-13.1-8.5-16.9c-4.2-3.2-9.5-4.8-16-4.8c-1.2,0-2.4,0.1-3.6,0.2
			c-7.9,0.7-14,3.3-18.2,7.8c-4.3,4.6-6,10.7-5.3,18.1l0.9,8.6l9.6,92.4c0.8,7.2,3.6,12.8,8.4,16.6c4.2,3.3,9.4,4.9,15.6,4.9
			c1,0,2.1,0,3.2-0.1c8-0.7,14-3.4,17.9-8c3.8-4.5,5.5-10.5,4.8-17.7L277.6,240.5z"/>
		<path class="st1" d="M435.9,213c-3.9-2.4-8.6-3.7-13.9-3.7c-0.3,0-0.6,0-0.9,0c-6.9,0.2-12.4,1.9-16.4,5.1
			c-3.7,2.9-6.7,7.1-9.1,12.5c-9.6,22-19.1,44.2-28.3,66.4c-11.4-21.2-23.2-42.4-35.1-63.3c-2.8-5.1-6.2-9-10.1-11.6
			c-3.7-2.5-8.6-3.8-14.5-3.8c-1,0-2,0-3,0.1c-5.9,0.4-11,2.1-14.9,5c-4.2,3.1-6.9,7.4-7.7,12.5c-0.8,4.9,0.5,10.2,3.9,15.6
			c19.6,32.2,38.9,65,57.2,97.6c3,5.3,6.6,9.1,10.9,11.5c3.9,2.2,8.6,3.3,14.1,3.3c0.7,0,1.3,0,2,0c6.4-0.3,11.7-1.9,15.7-4.8
			c3.9-2.8,7.1-7,9.3-12.6c14.8-34.1,30.6-68.6,46.8-102.4c2.7-5.7,3.5-10.9,2.3-15.7C443.2,219.6,440.3,215.7,435.9,213z"/>
		<path class="st1" d="M501.1,232c0-7.5-2.4-13.4-7-17.5c-4.5-4.1-10.8-6.1-18.7-6.1l-0.4,0c-7.9,0.1-14.2,2.2-18.8,6.4
			c-4.6,4.2-6.9,10.2-6.8,17.7l1.8,101.4c0.1,7.3,2.5,13,7,17.2c4.4,4.1,10.5,6.2,18,6.2l0.3,0c8-0.1,14.2-2.3,18.5-6.6
			c4.2-4.2,6.4-10,6.3-17.3l-0.1-52.8L501.1,232z"/>
		<path class="st1" d="M638.6,211.4c-0.7,0-1.3,0-1.9,0c-6.7,0-12.2,1.7-16.3,5.1c-4.5,3.7-6.9,9.2-7.2,16.1l-1.3,27.9l-0.8,17.6
			c-15.6-19.2-31.7-38.4-48-57.2c-3.5-4.1-6.7-7-9.8-9c-3.5-2.2-8.3-3.3-14-3.4l-0.4,0h0c-6.7,0-12.3,2-16.6,6
			c-4.4,4.1-6.6,9.8-6.7,16.9l-0.4,50.8l-0.4,52.5c-0.1,7,2,12.6,6.2,16.6c4.1,3.9,10,6,17.3,6.1l0.5,0c7.1,0,12.8-1.9,16.9-5.7
			c4.2-3.8,6.4-9.3,6.5-16.3l1-45.4c15.7,18.9,31.2,38,46.2,57.2c3.3,4.1,6.4,7.1,9.5,9.2c3.5,2.3,8.3,3.7,14,3.9c0.4,0,0.9,0,1.3,0
			c5.9,0,10.8-1.8,14.6-5.5c4-3.8,6.2-8.8,6.6-15.1l4.3-72.9l1.9-31.9c0.4-6.9-1.5-12.6-5.5-16.7C652.2,214,646.2,211.7,638.6,211.4
			z"/>
		<path class="st1" d="M792.4,229.1c-3.4-3.7-8.5-5.9-15.3-6.5c-24-2.2-48.3-4.2-72.4-5.8c-1.1-0.1-2.1-0.1-3.1-0.1h0
			c-6.9,0-12.6,1.7-17,5.1c-5.1,3.9-7.9,9.7-8.4,17.2l-3.5,50.1l-3.3,47.3c-0.5,7.4,1.4,13.4,5.6,17.9c4.2,4.5,10.4,7,18.4,7.6
			c22.7,1.5,45.7,3.4,68.4,5.5c1.1,0.1,2.1,0.2,3.2,0.2c5.1,0,9.4-1.3,12.7-3.8c4-3,6.4-7.6,7.1-13.6c0.7-5.9-0.7-10.8-3.9-14.6
			c-3.3-3.8-8.3-6.1-14.9-6.7c-15.5-1.4-31.2-2.8-46.7-3.9l0.6-7.7l0.7-7.9c14.2,1.1,28.5,2.3,42.5,3.6c1.1,0.1,2.1,0.1,3.1,0.1
			c5.1,0,9.4-1.3,12.8-3.7c4.2-3.1,6.7-7.7,7.3-13.7c0.7-6.1-0.8-11.1-4.3-14.9c-3.4-3.7-8.4-5.8-14.9-6.4
			c-14.4-1.3-28.9-2.5-43.3-3.6l0.1-1.1l1-12.4c16,1.2,32.2,2.6,48.2,4.1c1.1,0.1,2.2,0.2,3.3,0.2c5.2,0,9.6-1.3,13-3.8
			c4.1-3.1,6.6-7.7,7.3-13.7C797.3,237.8,795.9,232.9,792.4,229.1z"/>
		<path class="st1" d="M928.8,253.2c-9.1-9.8-23-15.9-41.4-18.3c-17.4-2.3-35-4.4-52.3-6.3c-1.5-0.2-3.1-0.3-4.5-0.3
			c-5.9,0-11,1.4-15.1,4.3c-5.3,3.6-8.4,9.2-9.3,16.6l-11.9,99.4c-0.8,7.1,0.7,13.1,4.6,17.7c3.9,4.7,9.8,7.5,17.4,8.3
			c1.5,0.2,3,0.3,4.4,0.3c6,0,11-1.5,14.9-4.6c4.8-3.7,7.7-9.1,8.6-16.2l3.7-27.8c1.7,0.2,3.3,0.4,5,0.6c2.4,0.3,4.4,0.9,6,1.8
			c1.2,0.7,2.1,1.9,2.9,3.6c4.6,11.2,9.3,22.5,13.8,33.7c2.3,5.5,5.3,9.9,9.1,12.9c3.9,3.2,9.1,5.3,15.5,6.2
			c1.9,0.3,3.6,0.4,5.3,0.4c4.4,0,8.2-0.9,11.4-2.7c4.6-2.6,7.6-6.7,8.6-11.7c0.9-4.5,0.4-9.3-1.5-14.2c-2.4-6.1-4.9-12.3-7.4-18.4
			c-1.8-4.7-4.3-8.8-7.4-12.2c7.4-2.7,13.6-6.8,18.5-12.2c5.9-6.4,9.6-14.4,11.2-23.8C941.4,275.7,938,263.2,928.8,253.2z
			 M889.9,284.5c-0.7,4.7-2.8,6.3-4.4,7c-2,1-4.7,1.5-8.1,1.5c-1.7,0-3.5-0.1-5.5-0.4c-6.3-0.8-12.7-1.6-19.1-2.4l2.8-20.4
			c6.4,0.8,12.9,1.6,19.3,2.4c6,0.8,10.3,2.3,12.8,4.6C889,278.1,890.5,280.1,889.9,284.5z"/>
		<polygon class="st1" points="451.4,336.1 448,305.7 501.3,305.2 496.5,335.2 		"/>
		<polygon class="st1" points="561.5,340.4 566.4,307.6 560.7,262.6 654.6,345.7 665.7,314.8 663.6,181.4 621.3,183.4 615.2,223.2 
			614.5,234.3 547.3,223 546,322.8 		"/>
		<polygon class="st1" points="811.5,236.1 831.1,195.2 942.7,215.2 942,267.6 910.4,275.8 949.4,355.7 918.4,381.9 871.1,329.1 
			862.2,340.6 837.3,368.5 808.8,336 		"/>
		<polygon class="st1" points="785.6,297.9 800.1,273.3 796.2,239.9 813.3,212.2 731.3,205.4 689.7,188.2 679.1,228.8 692.6,346.2 
			779.7,362 798.8,335.3 782,302.9 		"/>
		<polyline class="st1" points="283.7,240.1 269.5,189.3 362.3,266.5 430.7,169.3 442.9,223.4 377,300.3 		"/>
		<polygon class="st1" points="274.5,230.1 259.2,185.4 220.1,298.4 222.2,329.3 239.9,356.3 270.5,345.2 276.8,273.8 		"/>
		<path class="st2" d="M170.9,203.1c-13.7-9.4-31-14.1-51.3-14.1c-6.4,0-13.2,0.5-20.2,1.4c-14.8,2-29.7,4.1-44.5,6.3
			c-8.8,1.3-15.4,4.8-19.7,10.2c-4.3,5.5-5.8,12.6-4.5,20.9l11,68.8l6.4,40.1c1.3,8.3,4.8,14.5,10.4,18.5c4.2,3,9.3,4.5,15.2,4.5
			c1.9,0,3.9-0.2,6-0.5c14-2.1,28.1-4.1,42-6c13.8-1.9,26.1-5.3,36.5-10.1c10.7-5,19.6-11.5,26.5-19.4c7-8,12.1-17.4,15.1-28
			c3-10.5,3.9-22.3,2.5-35C199.6,234.9,189,215.5,170.9,203.1z M146.3,284.4c-1,4.6-2.7,8.4-5.3,11.5c-2.6,3.2-6.2,5.9-10.6,8
			c-4.7,2.2-10.6,3.8-17.5,4.8c-4.7,0.6-9.5,1.3-14.2,2L92,264.6l-3.9-26.9c4.9-0.7,9.9-1.4,14.8-2c3.6-0.5,7.1-0.7,10.3-0.7
			c8.8,0,15.8,1.9,20.9,5.6c6.8,4.9,11.1,13.9,12.6,26.6C147.5,273.7,147.4,279.5,146.3,284.4z"/>
		<path class="st2" d="M262.5,197.9c-0.7-8.4-3.7-14.8-9.1-19.1c-4.4-3.6-10.2-5.4-17.1-5.4c-1.2,0-2.5,0.1-3.8,0.2
			c-8.4,0.8-15,3.7-19.4,8.8c-4.6,5.2-6.4,12.1-5.6,20.5l0.9,9.7l10.2,104.4c0.8,8.2,3.8,14.5,9,18.8c4.4,3.7,10.1,5.6,16.7,5.6
			c1.1,0,2.3-0.1,3.4-0.2c8.5-0.8,14.9-3.8,19.1-9c4.1-5.1,5.9-11.9,5.2-20L262.5,197.9z"/>
		<path class="st2" d="M431.6,166.8c-4.2-2.7-9.2-4.1-14.9-4.1c-0.3,0-0.7,0-1,0c-7.3,0.2-13.2,2.1-17.5,5.7
			c-3.9,3.3-7.2,8-9.7,14.1c-10.3,24.8-20.4,50-30.2,75.1c-12.2-23.9-24.8-47.9-37.5-71.5c-3-5.7-6.7-10.1-10.8-13.1
			c-4-2.8-9.1-4.3-15.5-4.3c-1,0-2.1,0-3.2,0.1c-6.3,0.4-11.7,2.3-15.9,5.6c-4.5,3.5-7.3,8.4-8.2,14.1c-0.8,5.6,0.6,11.5,4.1,17.6
			c20.9,36.3,41.5,73.5,61.1,110.4c3.2,5.9,7.1,10.3,11.7,13c4.1,2.5,9.2,3.7,15.1,3.7c0.7,0,1.4,0,2.2-0.1
			c6.8-0.3,12.5-2.2,16.8-5.4c4.2-3.2,7.6-8,10-14.2c15.8-38.5,32.7-77.5,49.9-115.7c2.9-6.4,3.7-12.4,2.5-17.8
			C439.3,174.3,436.3,169.9,431.6,166.8z"/>
		<path class="st2" d="M501.2,188.3c0-8.4-2.5-15.1-7.5-19.8c-4.8-4.6-11.5-6.9-19.9-6.9l-0.5,0c-8.4,0.1-15.2,2.5-20.1,7.2
			c-5,4.8-7.4,11.5-7.3,20l1.9,114.6c0.1,8.2,2.6,14.8,7.5,19.5c4.7,4.6,11.2,7,19.2,7l0.4,0c8.5-0.1,15.2-2.6,19.8-7.5
			c4.5-4.8,6.8-11.3,6.8-19.5l-0.2-59.6L501.2,188.3z"/>
		<path class="st2" d="M648,165c-0.7,0-1.4-0.1-2.1-0.1c-7.2,0-13.1,1.9-17.4,5.8c-4.8,4.2-7.4,10.4-7.7,18.2l-1.3,31.6l-0.8,19.9
			c-16.7-21.7-33.9-43.4-51.2-64.7c-3.7-4.6-7.1-7.9-10.5-10.1c-3.8-2.5-8.8-3.8-15-3.8l-0.4,0h0c-7.1,0-13.1,2.3-17.7,6.8
			c-4.7,4.6-7,11-7.1,19.1l-0.4,57.5l-0.4,59.3c-0.1,8,2.2,14.2,6.6,18.7c4.4,4.4,10.6,6.8,18.5,6.9l0.6,0c7.6,0,13.7-2.2,18.1-6.4
			c4.5-4.3,6.8-10.6,7-18.5l1-51.3c16.8,21.3,33.4,43,49.4,64.6c3.5,4.7,6.8,8,10.2,10.4c3.8,2.6,8.8,4.1,15,4.4c0.5,0,0.9,0,1.4,0
			c6.2,0,11.5-2.1,15.6-6.2c4.3-4.2,6.6-10,7-17.1l4.6-82.4l2-36.1c0.4-7.8-1.6-14.2-5.9-18.9C662.5,167.9,656.2,165.4,648,165z"/>
		<path class="st2" d="M812.3,185.1c-3.6-4.2-9.1-6.6-16.3-7.4c-25.6-2.5-51.6-4.7-77.3-6.6c-1.1-0.1-2.2-0.1-3.3-0.1h0
			c-7.4,0-13.5,1.9-18.1,5.7c-5.4,4.4-8.4,11-9,19.4l-3.7,56.6l-3.5,53.5c-0.5,8.4,1.5,15.2,6,20.3c4.5,5.1,11.1,7.9,19.7,8.6
			c24.3,1.7,48.8,3.8,73,6.2c1.2,0.1,2.3,0.2,3.4,0.2c5.4,0,10-1.4,13.6-4.3c4.3-3.4,6.8-8.6,7.5-15.4c0.7-6.6-0.7-12.2-4.2-16.5
			c-3.5-4.4-8.9-6.9-16-7.6c-16.5-1.6-33.3-3.1-49.9-4.4l0.7-8.7l0.7-8.9c15.1,1.2,30.4,2.6,45.4,4c1.1,0.1,2.2,0.2,3.3,0.2
			c5.4,0,10-1.4,13.6-4.2c4.5-3.5,7.1-8.7,7.8-15.5c0.7-6.9-0.8-12.5-4.6-16.8c-3.6-4.2-9-6.6-16-7.3c-15.3-1.5-30.8-2.8-46.2-4.1
			l0.1-1.2l1.1-14.1c17.1,1.4,34.4,2.9,51.4,4.6c1.2,0.1,2.4,0.2,3.5,0.2c5.6,0,10.3-1.5,13.9-4.3c4.4-3.5,7-8.7,7.7-15.5
			C817.5,194.9,816,189.3,812.3,185.1z"/>
		<path class="st2" d="M958,212.3c-9.7-11-24.5-18-44.2-20.7c-18.6-2.6-37.4-5-55.9-7.2c-1.6-0.2-3.3-0.3-4.8-0.3
			c-6.3,0-11.7,1.6-16.1,4.9c-5.6,4.1-9,10.4-9.9,18.7l-12.7,112.4c-0.9,8,0.7,14.8,4.9,20c4.2,5.3,10.4,8.5,18.5,9.4
			c1.6,0.2,3.2,0.3,4.7,0.3c6.4,0,11.7-1.7,15.9-5.2c5.1-4.2,8.2-10.3,9.2-18.3l4-31.4c1.8,0.2,3.6,0.5,5.4,0.7
			c2.5,0.3,4.7,1,6.4,2.1c1.3,0.8,2.3,2.1,3.1,4.1c5,12.6,9.9,25.4,14.7,38.1c2.4,6.2,5.7,11.1,9.7,14.6c4.1,3.6,9.7,6,16.6,7
			c2,0.3,3.9,0.5,5.7,0.5c4.7,0,8.8-1,12.2-3.1c4.9-3,8.1-7.5,9.2-13.2c1-5.1,0.5-10.5-1.6-16.1c-2.6-6.9-5.2-13.9-7.9-20.8
			c-1.9-5.3-4.5-10-7.9-13.8c7.9-3,14.5-7.7,19.8-13.8c6.3-7.3,10.3-16.3,12-26.9C971.5,237.7,967.8,223.5,958,212.3z M916.4,247.6
			c-0.8,5.3-3,7.1-4.7,7.9c-2.2,1.1-5.1,1.7-8.6,1.7c-1.8,0-3.8-0.1-5.9-0.4c-6.8-0.9-13.6-1.8-20.4-2.7l2.9-23.1
			c6.9,0.9,13.8,1.8,20.6,2.7c6.4,0.9,11,2.6,13.7,5.2C915.5,240.4,917.1,242.7,916.4,247.6z"/>
		<path class="st1" d="M191.9,245.1c-12.8-8.3-29-12.5-48-12.5c-6,0-12.4,0.4-18.9,1.3c-13.8,1.8-27.8,3.6-41.6,5.6
			c-8.3,1.2-14.5,4.2-18.4,9c-4,4.9-5.4,11.1-4.2,18.5L71,327.8l6,35.5c1.2,7.3,4.5,12.8,9.7,16.3c3.9,2.6,8.7,4,14.2,4
			c1.8,0,3.6-0.1,5.6-0.4c13.1-1.9,26.3-3.6,39.3-5.3c13-1.7,24.5-4.7,34.2-8.9c10-4.4,18.4-10.2,24.9-17.2
			c6.5-7.1,11.3-15.4,14.1-24.8c2.8-9.3,3.6-19.7,2.4-31C218.7,273.2,208.8,256,191.9,245.1z M168.9,317c-0.9,4.1-2.5,7.4-5,10.2
			c-2.5,2.8-5.8,5.2-9.9,7.1c-4.4,2-9.9,3.4-16.4,4.2c-4.4,0.6-8.9,1.2-13.3,1.7l-6.3-40.8l-3.7-23.8c4.6-0.6,9.2-1.2,13.8-1.8
			c3.4-0.4,6.6-0.7,9.6-0.7c8.2,0,14.8,1.7,19.6,4.9c6.4,4.3,10.4,12.3,11.8,23.6C169.9,307.5,169.8,312.7,168.9,317z"/>
		<path class="st1" d="M277.6,240.5c-0.7-7.4-3.5-13.1-8.5-16.9c-4.2-3.2-9.5-4.8-16-4.8c-1.2,0-2.4,0.1-3.6,0.2
			c-7.9,0.7-14,3.3-18.2,7.8c-4.3,4.6-6,10.7-5.3,18.1l0.9,8.6l9.6,92.4c0.8,7.2,3.6,12.8,8.4,16.6c4.2,3.3,9.4,4.9,15.6,4.9
			c1,0,2.1,0,3.2-0.1c8-0.7,14-3.4,17.9-8c3.8-4.5,5.5-10.5,4.8-17.7L277.6,240.5z"/>
		<path class="st1" d="M435.9,213c-3.9-2.4-8.6-3.7-13.9-3.7c-0.3,0-0.6,0-0.9,0c-6.9,0.2-12.4,1.9-16.4,5.1
			c-3.7,2.9-6.7,7.1-9.1,12.5c-9.6,22-19.1,44.2-28.3,66.4c-11.4-21.2-23.2-42.4-35.1-63.3c-2.8-5.1-6.2-9-10.1-11.6
			c-3.7-2.5-8.6-3.8-14.5-3.8c-1,0-2,0-3,0.1c-5.9,0.4-11,2.1-14.9,5c-4.2,3.1-6.9,7.4-7.7,12.5c-0.8,4.9,0.5,10.2,3.9,15.6
			c19.6,32.2,38.9,65,57.2,97.6c3,5.3,6.6,9.1,10.9,11.5c3.9,2.2,8.6,3.3,14.1,3.3c0.7,0,1.3,0,2,0c6.4-0.3,11.7-1.9,15.7-4.8
			c3.9-2.8,7.1-7,9.3-12.6c14.8-34.1,30.6-68.6,46.8-102.4c2.7-5.7,3.5-10.9,2.3-15.7C443.2,219.6,440.3,215.7,435.9,213z"/>
		<path class="st1" d="M501.1,232c0-7.5-2.4-13.4-7-17.5c-4.5-4.1-10.8-6.1-18.7-6.1l-0.4,0c-7.9,0.1-14.2,2.2-18.8,6.4
			c-4.6,4.2-6.9,10.2-6.8,17.7l1.8,101.4c0.1,7.3,2.5,13,7,17.2c4.4,4.1,10.5,6.2,18,6.2l0.3,0c8-0.1,14.2-2.3,18.5-6.6
			c4.2-4.2,6.4-10,6.3-17.3l-0.1-52.8L501.1,232z"/>
		<path class="st1" d="M638.6,211.4c-0.7,0-1.3,0-1.9,0c-6.7,0-12.2,1.7-16.3,5.1c-4.5,3.7-6.9,9.2-7.2,16.1l-1.3,27.9l-0.8,17.6
			c-15.6-19.2-31.7-38.4-48-57.2c-3.5-4.1-6.7-7-9.8-9c-3.5-2.2-8.3-3.3-14-3.4l-0.4,0h0c-6.7,0-12.3,2-16.6,6
			c-4.4,4.1-6.6,9.8-6.7,16.9l-0.4,50.8l-0.4,52.5c-0.1,7,2,12.6,6.2,16.6c4.1,3.9,10,6,17.3,6.1l0.5,0c7.1,0,12.8-1.9,16.9-5.7
			c4.2-3.8,6.4-9.3,6.5-16.3l1-45.4c15.7,18.9,31.2,38,46.2,57.2c3.3,4.1,6.4,7.1,9.5,9.2c3.5,2.3,8.3,3.7,14,3.9c0.4,0,0.9,0,1.3,0
			c5.9,0,10.8-1.8,14.6-5.5c4-3.8,6.2-8.8,6.6-15.1l4.3-72.9l1.9-31.9c0.4-6.9-1.5-12.6-5.5-16.7C652.2,214,646.2,211.7,638.6,211.4
			z"/>
		<path class="st1" d="M792.4,229.1c-3.4-3.7-8.5-5.9-15.3-6.5c-24-2.2-48.3-4.2-72.4-5.8c-1.1-0.1-2.1-0.1-3.1-0.1h0
			c-6.9,0-12.6,1.7-17,5.1c-5.1,3.9-7.9,9.7-8.4,17.2l-3.5,50.1l-3.3,47.3c-0.5,7.4,1.4,13.4,5.6,17.9c4.2,4.5,10.4,7,18.4,7.6
			c22.7,1.5,45.7,3.4,68.4,5.5c1.1,0.1,2.1,0.2,3.2,0.2c5.1,0,9.4-1.3,12.7-3.8c4-3,6.4-7.6,7.1-13.6c0.7-5.9-0.7-10.8-3.9-14.6
			c-3.3-3.8-8.3-6.1-14.9-6.7c-15.5-1.4-31.2-2.8-46.7-3.9l0.6-7.7l0.7-7.9c14.2,1.1,28.5,2.3,42.5,3.6c1.1,0.1,2.1,0.1,3.1,0.1
			c5.1,0,9.4-1.3,12.8-3.7c4.2-3.1,6.7-7.7,7.3-13.7c0.7-6.1-0.8-11.1-4.3-14.9c-3.4-3.7-8.4-5.8-14.9-6.4
			c-14.4-1.3-28.9-2.5-43.3-3.6l0.1-1.1l1-12.4c16,1.2,32.2,2.6,48.2,4.1c1.1,0.1,2.2,0.2,3.3,0.2c5.2,0,9.6-1.3,13-3.8
			c4.1-3.1,6.6-7.7,7.3-13.7C797.3,237.8,795.9,232.9,792.4,229.1z"/>
		<path class="st1" d="M928.8,253.2c-9.1-9.8-23-15.9-41.4-18.3c-17.4-2.3-35-4.4-52.3-6.3c-1.5-0.2-3.1-0.3-4.5-0.3
			c-5.9,0-11,1.4-15.1,4.3c-5.3,3.6-8.4,9.2-9.3,16.6l-11.9,99.4c-0.8,7.1,0.7,13.1,4.6,17.7c3.9,4.7,9.8,7.5,17.4,8.3
			c1.5,0.2,3,0.3,4.4,0.3c6,0,11-1.5,14.9-4.6c4.8-3.7,7.7-9.1,8.6-16.2l3.7-27.8c1.7,0.2,3.3,0.4,5,0.6c2.4,0.3,4.4,0.9,6,1.8
			c1.2,0.7,2.1,1.9,2.9,3.6c4.6,11.2,9.3,22.5,13.8,33.7c2.3,5.5,5.3,9.9,9.1,12.9c3.9,3.2,9.1,5.3,15.5,6.2
			c1.9,0.3,3.6,0.4,5.3,0.4c4.4,0,8.2-0.9,11.4-2.7c4.6-2.6,7.6-6.7,8.6-11.7c0.9-4.5,0.4-9.3-1.5-14.2c-2.4-6.1-4.9-12.3-7.4-18.4
			c-1.8-4.7-4.3-8.8-7.4-12.2c7.4-2.7,13.6-6.8,18.5-12.2c5.9-6.4,9.6-14.4,11.2-23.8C941.4,275.7,938,263.2,928.8,253.2z
			 M889.9,284.5c-0.7,4.7-2.8,6.3-4.4,7c-2,1-4.7,1.5-8.1,1.5c-1.7,0-3.5-0.1-5.5-0.4c-6.3-0.8-12.7-1.6-19.1-2.4l2.8-20.4
			c6.4,0.8,12.9,1.6,19.3,2.4c6,0.8,10.3,2.3,12.8,4.6C889,278.1,890.5,280.1,889.9,284.5z"/>
		<polygon class="st1" points="451.4,336.1 448,305.7 501.3,305.2 496.5,335.2 		"/>
		<polygon class="st1" points="561.5,340.4 566.4,307.6 560.7,262.6 654.6,345.7 665.7,314.8 663.6,181.4 621.3,183.4 615.2,223.2 
			614.5,234.3 547.3,223 546,322.8 		"/>
		<polygon class="st1" points="811.5,236.1 831.1,195.2 942.7,215.2 942,267.6 910.4,275.8 949.4,355.7 918.4,381.9 871.1,329.1 
			862.2,340.6 837.3,368.5 808.8,336 		"/>
		<polygon class="st1" points="785.6,297.9 800.1,273.3 796.2,239.9 813.3,212.2 731.3,205.4 689.7,188.2 679.1,228.8 692.6,346.2 
			779.7,362 798.8,335.3 782,302.9 		"/>
		<polyline class="st1" points="283.7,240.1 269.5,189.3 362.3,266.5 441,181.7 444.5,225.9 377,300.3 		"/>
		<polygon class="st1" points="274.5,230.1 259.2,185.4 220.1,298.4 222.2,329.3 239.9,356.3 270.5,345.2 276.8,273.8 		"/>
		<polygon class="st1" points="87.4,380 53.1,350.1 98.5,320.8 169,299.2 173.6,243.5 146.6,203.3 190.4,223.7 213.5,268.9 
			203.9,337.2 133.2,367.3 		"/>
		<path class="st2" d="M170.9,203.1c-13.7-9.4-31-14.1-51.3-14.1c-6.4,0-13.2,0.5-20.2,1.4c-14.8,2-29.7,4.1-44.5,6.3
			c-8.8,1.3-15.4,4.8-19.7,10.2c-4.3,5.5-5.8,12.6-4.5,20.9l11,68.8l6.4,40.1c1.3,8.3,4.8,14.5,10.4,18.5c4.2,3,9.3,4.5,15.2,4.5
			c1.9,0,3.9-0.2,6-0.5c14-2.1,28.1-4.1,42-6c13.8-1.9,26.1-5.3,36.5-10.1c10.7-5,19.6-11.5,26.5-19.4c7-8,12.1-17.4,15.1-28
			c3-10.5,3.9-22.3,2.5-35C199.6,234.9,189,215.5,170.9,203.1z M146.3,284.4c-1,4.6-2.7,8.4-5.3,11.5c-2.6,3.2-6.2,5.9-10.6,8
			c-4.7,2.2-10.6,3.8-17.5,4.8c-4.7,0.6-9.5,1.3-14.2,2L92,264.6l-3.9-26.9c4.9-0.7,9.9-1.4,14.8-2c3.6-0.5,7.1-0.7,10.3-0.7
			c8.8,0,15.8,1.9,20.9,5.6c6.8,4.9,11.1,13.9,12.6,26.6C147.5,273.7,147.4,279.5,146.3,284.4z"/>
		<path class="st2" d="M262.5,197.9c-0.7-8.4-3.7-14.8-9.1-19.1c-4.4-3.6-10.2-5.4-17.1-5.4c-1.2,0-2.5,0.1-3.8,0.2
			c-8.4,0.8-15,3.7-19.4,8.8c-4.6,5.2-6.4,12.1-5.6,20.5l0.9,9.7l10.2,104.4c0.8,8.2,3.8,14.5,9,18.8c4.4,3.7,10.1,5.6,16.7,5.6
			c1.1,0,2.3-0.1,3.4-0.2c8.5-0.8,14.9-3.8,19.1-9c4.1-5.1,5.9-11.9,5.2-20L262.5,197.9z"/>
		<path class="st2" d="M431.6,166.8c-4.2-2.7-9.2-4.1-14.9-4.1c-0.3,0-0.7,0-1,0c-7.3,0.2-13.2,2.1-17.5,5.7
			c-3.9,3.3-7.2,8-9.7,14.1c-10.3,24.8-20.4,50-30.2,75.1c-12.2-23.9-24.8-47.9-37.5-71.5c-3-5.7-6.7-10.1-10.8-13.1
			c-4-2.8-9.1-4.3-15.5-4.3c-1,0-2.1,0-3.2,0.1c-6.3,0.4-11.7,2.3-15.9,5.6c-4.5,3.5-7.3,8.4-8.2,14.1c-0.8,5.6,0.6,11.5,4.1,17.6
			c20.9,36.3,41.5,73.5,61.1,110.4c3.2,5.9,7.1,10.3,11.7,13c4.1,2.5,9.2,3.7,15.1,3.7c0.7,0,1.4,0,2.2-0.1
			c6.8-0.3,12.5-2.2,16.8-5.4c4.2-3.2,7.6-8,10-14.2c15.8-38.5,32.7-77.5,49.9-115.7c2.9-6.4,3.7-12.4,2.5-17.8
			C439.3,174.3,436.3,169.9,431.6,166.8z"/>
		<path class="st2" d="M501.2,188.3c0-8.4-2.5-15.1-7.5-19.8c-4.8-4.6-11.5-6.9-19.9-6.9l-0.5,0c-8.4,0.1-15.2,2.5-20.1,7.2
			c-5,4.8-7.4,11.5-7.3,20l1.9,114.6c0.1,8.2,2.6,14.8,7.5,19.5c4.7,4.6,11.2,7,19.2,7l0.4,0c8.5-0.1,15.2-2.6,19.8-7.5
			c4.5-4.8,6.8-11.3,6.8-19.5l-0.2-59.6L501.2,188.3z"/>
		<path class="st2" d="M648,165c-0.7,0-1.4-0.1-2.1-0.1c-7.2,0-13.1,1.9-17.4,5.8c-4.8,4.2-7.4,10.4-7.7,18.2l-1.3,31.6l-0.8,19.9
			c-16.7-21.7-33.9-43.4-51.2-64.7c-3.7-4.6-7.1-7.9-10.5-10.1c-3.8-2.5-8.8-3.8-15-3.8l-0.4,0h0c-7.1,0-13.1,2.3-17.7,6.8
			c-4.7,4.6-7,11-7.1,19.1l-0.4,57.5l-0.4,59.3c-0.1,8,2.2,14.2,6.6,18.7c4.4,4.4,10.6,6.8,18.5,6.9l0.6,0c7.6,0,13.7-2.2,18.1-6.4
			c4.5-4.3,6.8-10.6,7-18.5l1-51.3c16.8,21.3,33.4,43,49.4,64.6c3.5,4.7,6.8,8,10.2,10.4c3.8,2.6,8.8,4.1,15,4.4c0.5,0,0.9,0,1.4,0
			c6.2,0,11.5-2.1,15.6-6.2c4.3-4.2,6.6-10,7-17.1l4.6-82.4l2-36.1c0.4-7.8-1.6-14.2-5.9-18.9C662.5,167.9,656.2,165.4,648,165z"/>
		<path class="st2" d="M812.3,185.1c-3.6-4.2-9.1-6.6-16.3-7.4c-25.6-2.5-51.6-4.7-77.3-6.6c-1.1-0.1-2.2-0.1-3.3-0.1h0
			c-7.4,0-13.5,1.9-18.1,5.7c-5.4,4.4-8.4,11-9,19.4l-3.7,56.6l-3.5,53.5c-0.5,8.4,1.5,15.2,6,20.3c4.5,5.1,11.1,7.9,19.7,8.6
			c24.3,1.7,48.8,3.8,73,6.2c1.2,0.1,2.3,0.2,3.4,0.2c5.4,0,10-1.4,13.6-4.3c4.3-3.4,6.8-8.6,7.5-15.4c0.7-6.6-0.7-12.2-4.2-16.5
			c-3.5-4.4-8.9-6.9-16-7.6c-16.5-1.6-33.3-3.1-49.9-4.4l0.7-8.7l0.7-8.9c15.1,1.2,30.4,2.6,45.4,4c1.1,0.1,2.2,0.2,3.3,0.2
			c5.4,0,10-1.4,13.6-4.2c4.5-3.5,7.1-8.7,7.8-15.5c0.7-6.9-0.8-12.5-4.6-16.8c-3.6-4.2-9-6.6-16-7.3c-15.3-1.5-30.8-2.8-46.2-4.1
			l0.1-1.2l1.1-14.1c17.1,1.4,34.4,2.9,51.4,4.6c1.2,0.1,2.4,0.2,3.5,0.2c5.6,0,10.3-1.5,13.9-4.3c4.4-3.5,7-8.7,7.7-15.5
			C817.5,194.9,816,189.3,812.3,185.1z"/>
		<path class="st2" d="M958,212.3c-9.7-11-24.5-18-44.2-20.7c-18.6-2.6-37.4-5-55.9-7.2c-1.6-0.2-3.3-0.3-4.8-0.3
			c-6.3,0-11.7,1.6-16.1,4.9c-5.6,4.1-9,10.4-9.9,18.7l-12.7,112.4c-0.9,8,0.7,14.8,4.9,20c4.2,5.3,10.4,8.5,18.5,9.4
			c1.6,0.2,3.2,0.3,4.7,0.3c6.4,0,11.7-1.7,15.9-5.2c5.1-4.2,8.2-10.3,9.2-18.3l4-31.4c1.8,0.2,3.6,0.5,5.4,0.7
			c2.5,0.3,4.7,1,6.4,2.1c1.3,0.8,2.3,2.1,3.1,4.1c5,12.6,9.9,25.4,14.7,38.1c2.4,6.2,5.7,11.1,9.7,14.6c4.1,3.6,9.7,6,16.6,7
			c2,0.3,3.9,0.5,5.7,0.5c4.7,0,8.8-1,12.2-3.1c4.9-3,8.1-7.5,9.2-13.2c1-5.1,0.5-10.5-1.6-16.1c-2.6-6.9-5.2-13.9-7.9-20.8
			c-1.9-5.3-4.5-10-7.9-13.8c7.9-3,14.5-7.7,19.8-13.8c6.3-7.3,10.3-16.3,12-26.9C971.5,237.7,967.8,223.5,958,212.3z M916.4,247.6
			c-0.8,5.3-3,7.1-4.7,7.9c-2.2,1.1-5.1,1.7-8.6,1.7c-1.8,0-3.8-0.1-5.9-0.4c-6.8-0.9-13.6-1.8-20.4-2.7l2.9-23.1
			c6.9,0.9,13.8,1.8,20.6,2.7c6.4,0.9,11,2.6,13.7,5.2C915.5,240.4,917.1,242.7,916.4,247.6z"/>
		<g>
			<linearGradient id="SVGID_1_" gradientUnits="userSpaceOnUse" x1="116.6422" y1="353.0289" x2="116.6422" y2="195.6278">
				<stop  offset="0" style="stop-color:#000000;stop-opacity:0.2"/>
				<stop  offset="0.4" style="stop-color:#110F0F;stop-opacity:0.1"/>
				<stop  offset="0.5" style="stop-color:#000000;stop-opacity:0"/>
				<stop  offset="1" style="stop-color:#000000;stop-opacity:0"/>
			</linearGradient>
			<path class="st3" d="M78.6,352.6c-6.7,1-12.1,0.1-16.2-2.8c-4.1-2.9-6.6-7.6-7.6-14.1c-5.8-36.3-11.6-72.6-17.4-109
				c-1-6.5,0-11.7,3.1-15.8c3.1-4,8.3-6.6,15.3-7.7c14.8-2.2,29.6-4.3,44.4-6.3c27.8-3.7,50.2,0.3,66.7,11.6
				c16.6,11.4,26,29.1,28.6,52.9c1.3,11.9,0.5,22.7-2.3,32.5c-2.8,9.7-7.4,18.2-13.7,25.4c-6.3,7.3-14.5,13.2-24.3,17.7
				c-9.9,4.6-21.4,7.7-34.6,9.5C106.7,348.5,92.7,350.5,78.6,352.6z M93,318.3c7-1,13.9-2,20.9-2.9c7.7-1,14.2-2.8,19.5-5.4
				c5.3-2.6,9.7-5.8,12.9-9.8c3.3-4,5.5-8.8,6.7-14.4c1.2-5.6,1.3-12.1,0.4-19.5c-1.8-14.7-6.9-25.2-15.4-31.3
				c-8.5-6.1-20.5-8.1-36.1-6c-7.2,1-14.3,2-21.5,3C84.6,260.7,88.8,289.5,93,318.3z"/>
		</g>
		<g>
			
				<linearGradient id="SVGID_00000067207359567283936480000002457321982965536148_" gradientUnits="userSpaceOnUse" x1="239.7335" y1="334.5474" x2="239.7335" y2="180.0075">
				<stop  offset="0" style="stop-color:#000000;stop-opacity:0.2"/>
				<stop  offset="0.4" style="stop-color:#110F0F;stop-opacity:0.1"/>
				<stop  offset="0.5" style="stop-color:#000000;stop-opacity:0"/>
				<stop  offset="1" style="stop-color:#000000;stop-opacity:0"/>
			</linearGradient>
			<path style="fill:url(#SVGID_00000067207359567283936480000002457321982965536148_);" d="M247.2,334.4
				c-6.3,0.6-11.4-0.7-15.2-3.9c-3.8-3.2-6-7.9-6.6-14.3c-3.7-38-7.4-76-11.2-114.1c-0.6-6.5,0.7-11.7,4-15.4
				c3.3-3.8,8.3-5.9,15-6.5c6.8-0.6,12.2,0.7,16,3.8c3.9,3.1,6,8,6.6,14.5c3.2,38.1,6.4,76.1,9.6,114.2c0.5,6.4-0.7,11.5-3.7,15.3
				C258.6,331.7,253.8,333.8,247.2,334.4z"/>
		</g>
		<g>
			
				<linearGradient id="SVGID_00000179623324145197071370000017183932705413507500_" gradientUnits="userSpaceOnUse" x1="354.1472" y1="326.5415" x2="354.1472" y2="169.3511">
				<stop  offset="0" style="stop-color:#000000;stop-opacity:0.2"/>
				<stop  offset="0.4" style="stop-color:#110F0F;stop-opacity:0.1"/>
				<stop  offset="0.5" style="stop-color:#000000;stop-opacity:0"/>
				<stop  offset="1" style="stop-color:#000000;stop-opacity:0"/>
			</linearGradient>
			<path style="fill:url(#SVGID_00000179623324145197071370000017183932705413507500_);" d="M434.1,181.5c-0.9-4-3-7-6.3-9.2
				c-3.2-2.1-7.2-3.1-11.9-3c-5.8,0.2-10.2,1.6-13.3,4.2c-3.1,2.6-5.7,6.4-7.8,11.5c-12.3,29.6-24.1,59.3-35.6,89
				c-14.4-28.4-29.1-56.7-44.2-84.9c-2.6-4.8-5.5-8.5-8.8-10.8c-3.3-2.4-8-3.3-14.3-2.9c-5,0.4-9.1,1.8-12.3,4.2
				c-3.2,2.5-5.1,5.7-5.7,9.8c-0.6,4.1,0.5,8.5,3.3,13.3c21.1,36.6,41.5,73.5,61.3,110.6c2.6,4.9,5.7,8.3,9.2,10.4
				c3.5,2.1,8,3,13.5,2.7c5.5-0.3,9.8-1.6,13-4c3.2-2.4,5.8-6.2,7.8-11.3c16-38.8,32.7-77.5,50.1-116.1
				C434.3,190,435,185.5,434.1,181.5z"/>
		</g>
		<g>
			
				<linearGradient id="SVGID_00000008841107055168681950000004737444741548649900_" gradientUnits="userSpaceOnUse" x1="473.7462" y1="323.1472" x2="473.7462" y2="168.2646">
				<stop  offset="0" style="stop-color:#000000;stop-opacity:0.2"/>
				<stop  offset="0.4" style="stop-color:#110F0F;stop-opacity:0.1"/>
				<stop  offset="0.5" style="stop-color:#000000;stop-opacity:0"/>
				<stop  offset="1" style="stop-color:#000000;stop-opacity:0"/>
			</linearGradient>
			<path style="fill:url(#SVGID_00000008841107055168681950000004737444741548649900_);" d="M474.9,323.1
				c-6.3,0.1-11.3-1.6-14.8-5.1c-3.5-3.4-5.3-8.4-5.4-14.8c-0.6-38.2-1.3-76.4-1.9-114.6c-0.1-6.6,1.6-11.6,5.2-15.1
				c3.6-3.5,8.7-5.3,15.4-5.3c6.8-0.1,12.1,1.6,15.7,5c3.6,3.4,5.4,8.4,5.4,15c0.1,38.2,0.2,76.4,0.3,114.6c0,6.4-1.6,11.4-4.9,14.9
				C486.5,321.3,481.5,323.1,474.9,323.1z"/>
		</g>
		<g>
			
				<linearGradient id="SVGID_00000075130435325635376600000006842656068155645861_" gradientUnits="userSpaceOnUse" x1="594.3729" y1="326.4995" x2="594.3729" y2="168.3914">
				<stop  offset="0" style="stop-color:#000000;stop-opacity:0.2"/>
				<stop  offset="0.4" style="stop-color:#110F0F;stop-opacity:0.1"/>
				<stop  offset="0.5" style="stop-color:#000000;stop-opacity:0"/>
				<stop  offset="1" style="stop-color:#000000;stop-opacity:0"/>
			</linearGradient>
			<path style="fill:url(#SVGID_00000075130435325635376600000006842656068155645861_);" d="M661.9,177.1c-3.1-3.3-7.8-5.1-14.2-5.4
				c-6.4-0.3-11.3,1.1-14.7,4c-3.4,3-5.2,7.5-5.5,13.5c-1,23.3-2,46.7-3,70c-20.2-26.7-41-53.1-62.4-79.3c-3.3-4.1-6.2-7-8.9-8.7
				c-2.7-1.8-6.5-2.7-11.4-2.7c-5.5-0.1-9.9,1.6-13.3,4.9c-3.4,3.3-5.1,8.1-5.1,14.4c-0.3,38.9-0.6,77.8-0.8,116.7
				c0,6.1,1.5,10.8,4.7,14c3.1,3.2,7.7,4.8,13.8,4.9c6.1,0.1,10.7-1.4,13.8-4.5c3.2-3.1,4.8-7.7,4.9-13.8c0.5-23.3,1-46.7,1.4-70
				c21,26.3,41.4,52.8,61.2,79.5c3,4,5.9,6.9,8.6,8.8c2.7,1.9,6.5,3,11.4,3.2c4.9,0.2,8.9-1.2,11.9-4.2c3.1-3.1,4.7-7.3,5-12.7
				c2.2-39.5,4.4-79,6.6-118.5C666.4,185.1,665,180.4,661.9,177.1z"/>
		</g>
		<g>
			
				<linearGradient id="SVGID_00000067918193189773869910000013515476239363164061_" gradientUnits="userSpaceOnUse" x1="748.9987" y1="334.8188" x2="748.9987" y2="177.7267">
				<stop  offset="0" style="stop-color:#000000;stop-opacity:0.2"/>
				<stop  offset="0.4" style="stop-color:#110F0F;stop-opacity:0.1"/>
				<stop  offset="0.5" style="stop-color:#000000;stop-opacity:0"/>
				<stop  offset="1" style="stop-color:#000000;stop-opacity:0"/>
			</linearGradient>
			<path style="fill:url(#SVGID_00000067918193189773869910000013515476239363164061_);" d="M707.2,328.5
				c-6.8-0.5-11.8-2.6-15.1-6.3c-3.3-3.7-4.7-8.9-4.3-15.4c2.4-36.7,4.8-73.4,7.2-110.1c0.4-6.5,2.6-11.5,6.6-14.7
				c3.9-3.2,9.5-4.6,16.6-4.1c25.7,1.9,51.4,4,77.1,6.5c5.5,0.5,9.4,2.2,11.9,5.1c2.5,2.8,3.4,6.7,2.9,11.5c-0.5,5-2.3,8.6-5.2,11
				c-3,2.4-7.2,3.3-12.6,2.7c-19.4-1.9-38.8-3.6-58.3-5.1c-0.8,9.5-1.5,19.1-2.3,28.6c17.6,1.4,35.2,2.9,52.8,4.6
				c5.2,0.5,9,2.2,11.5,5c2.5,2.8,3.5,6.7,3,11.7c-0.5,5-2.3,8.6-5.2,10.9c-3,2.3-7,3.2-12.2,2.7c-17.4-1.7-34.8-3.2-52.3-4.6
				c-0.8,10.3-1.6,20.6-2.5,31c18.8,1.5,37.7,3.1,56.5,5c5.2,0.5,9,2.2,11.4,5.1c2.3,2.9,3.3,6.8,2.7,11.6c-0.5,5-2.2,8.6-5.1,10.9
				c-2.9,2.3-6.9,3.2-12,2.7C756,332.3,731.6,330.2,707.2,328.5z"/>
		</g>
		<g>
			
				<linearGradient id="SVGID_00000008144448533153595940000006749423848682960012_" gradientUnits="userSpaceOnUse" x1="891.8768" y1="355.4014" x2="891.8768" y2="190.8212">
				<stop  offset="0" style="stop-color:#000000;stop-opacity:0.2"/>
				<stop  offset="0.4" style="stop-color:#110F0F;stop-opacity:0.1"/>
				<stop  offset="0.5" style="stop-color:#000000;stop-opacity:0"/>
				<stop  offset="1" style="stop-color:#000000;stop-opacity:0"/>
			</linearGradient>
			<path style="fill:url(#SVGID_00000008144448533153595940000006749423848682960012_);" d="M946.5,332c-2.6-6.9-5.2-13.8-7.9-20.7
				c-2.3-6.4-5.6-11.4-10-15c-2.1-1.7-4.5-3.2-7.1-4.3c3.1-0.4,6.2-0.9,9-1.7c8.7-2.5,15.7-6.9,21.2-13.3
				c5.4-6.3,8.9-14.2,10.4-23.6c2.3-14.7-0.7-26.9-9.3-36.7c-8.6-9.8-21.9-16-40.1-18.5c-18.6-2.6-37.2-4.9-55.8-7.2
				c-6.7-0.8-12,0.3-16.1,3.3c-4.1,3-6.5,7.7-7.2,14.1c-4.2,37.5-8.5,74.9-12.7,112.4c-0.7,6.2,0.5,11.3,3.5,15.2
				c3.1,3.9,7.7,6.2,14,6.9c6.6,0.8,11.8-0.3,15.5-3.4c3.7-3.1,6-7.7,6.8-13.9c1.6-12.7,3.2-25.4,4.8-38c4,0.5,8,1,12.1,1.5
				c3.5,0.5,6.5,1.5,9.1,3c2.5,1.6,4.5,4,5.8,7.4c5,12.7,9.9,25.4,14.8,38.2c2,5.2,4.6,9.2,7.8,12c3.2,2.8,7.5,4.6,13.1,5.4
				c5.6,0.8,10,0.3,13.3-1.7c3.3-2,5.4-4.9,6.1-8.8C948.6,340.6,948.2,336.5,946.5,332z M896.3,263.4c-9-1.2-18-2.4-27-3.5
				c1.5-12.1,3.1-24.2,4.6-36.3c9.1,1.1,18.2,2.3,27.4,3.6c7.9,1.1,13.8,3.4,17.5,7.1c3.7,3.6,5.2,8.4,4.3,14.4
				c-0.9,6.2-3.7,10.5-8.2,12.9C910.3,263.8,904.1,264.5,896.3,263.4z"/>
		</g>
		<path class="st1" d="M638.5,147.5c-13.4,0-25.2-2.6-35-7.8c-10.2-5.4-18-13.1-23.4-22.8c-5.1-9.4-7.8-20.4-7.8-32.5
			c0-9.4,1.6-18.1,4.6-25.9c3.1-8,7.8-15,13.8-20.7c6-5.8,13.4-10.3,22-13.2c8.1-2.8,17.4-4.3,27.4-4.3c5.4,0,11,0.5,16.7,1.5
			c6.1,1.1,12.1,3.2,17.8,6.1c5.1,2.4,8.9,6.2,11.1,11.1c1.9,4.3,2.5,8.8,1.8,13.5c-0.6,4.2-2.2,8-4.6,11.5
			c-1.2,1.7-2.6,3.2-4.1,4.5c1.2,0.8,2.3,1.7,3.3,2.7c4.2,4.2,6.4,10,6.4,16.7v30.8c0,5.2-1.2,9.8-3.6,13.8
			c-2.8,4.6-7.2,8.1-12.7,9.9c-5,1.7-10.5,3-16.3,4C650.2,147,644.3,147.5,638.5,147.5z"/>
		<path class="st2" d="M638.5,138.8c-12,0-22.4-2.3-30.9-6.8c-8.6-4.6-15.3-11.1-19.8-19.3c-4.4-8.1-6.7-17.7-6.7-28.4
			c0-8.3,1.4-15.9,4-22.7c2.7-6.8,6.6-12.8,11.7-17.7c5.1-4.9,11.4-8.7,18.8-11.3c7.2-2.5,15.5-3.8,24.5-3.8c4.9,0,10,0.5,15.1,1.4
			c5.3,1,10.5,2.8,15.5,5.4c3.2,1.5,5.6,3.8,7,6.8c1.2,2.8,1.6,5.7,1.2,8.7c-0.4,2.8-1.5,5.5-3.1,7.8c-1.8,2.7-4.4,4.4-7.5,5.3
			c-1.1,0.3-2.3,0.5-3.4,0.5c-2.2,0-4.5-0.5-6.8-1.6c-2.6-1.2-5.3-2.1-8.2-2.7c-3-0.6-6.1-0.9-9.5-0.9c-5.5,0-10.1,0.9-13.5,2.8
			c-3.3,1.8-5.8,4.4-7.4,7.9c-1.8,3.8-2.7,8.5-2.7,14.2c0,8.3,1.9,14.5,5.8,18.4c3.8,4,9.6,5.9,17.6,5.9c2.5,0,5.4-0.3,8.5-0.8
			c0.5-0.1,1.1-0.2,1.6-0.3V100h-5.4c-4.3,0-7.8-1.2-10.3-3.5c-1.8-1.7-4-4.7-4-9.9c0-5.2,2.2-8.2,4.1-9.9c2.5-2.3,6-3.4,10.3-3.4
			h20.7c4.5,0,8,1.3,10.6,3.8c2.6,2.6,3.9,6.1,3.9,10.5v30.8c0,3.6-0.8,6.7-2.4,9.3c-1.7,2.9-4.4,4.9-7.9,6.1
			c-4.6,1.5-9.6,2.8-15,3.6C649.3,138.4,643.8,138.8,638.5,138.8z"/>
		<g>
			
				<linearGradient id="SVGID_00000169553015546679282990000005826674473118533023_" gradientUnits="userSpaceOnUse" x1="630.5041" y1="134.4692" x2="630.5041" y2="33.2563">
				<stop  offset="0" style="stop-color:#000000;stop-opacity:0.2"/>
				<stop  offset="0.4" style="stop-color:#110F0F;stop-opacity:0.1"/>
				<stop  offset="0.5" style="stop-color:#000000;stop-opacity:0"/>
				<stop  offset="1" style="stop-color:#000000;stop-opacity:0"/>
			</linearGradient>
			<path style="fill:url(#SVGID_00000169553015546679282990000005826674473118533023_);" d="M672.9,80.2c-1.7-1.7-4.2-2.6-7.5-2.6
				h-20.7c-3.2,0-5.6,0.8-7.4,2.3c-1.7,1.5-2.6,3.7-2.6,6.6s0.9,5.1,2.6,6.7c1.7,1.6,4.2,2.4,7.4,2.4h9.8v15.5
				c-1.8,0.4-3.5,0.8-5.3,1.1c-3.3,0.6-6.4,0.8-9.2,0.8c-9.2,0-16.1-2.4-20.7-7.2c-4.7-4.8-7-12-7-21.4c0-6.3,1-11.6,3.1-16
				c2.1-4.4,5.2-7.7,9.3-9.9c4.2-2.2,9.4-3.3,15.6-3.3c3.6,0,7.1,0.3,10.4,1c3.3,0.7,6.3,1.7,9.1,3c2.7,1.2,5.1,1.5,7.3,0.9
				c2.1-0.6,3.9-1.8,5.1-3.6c1.3-1.8,2.1-3.8,2.4-6c0.3-2.2,0-4.3-0.8-6.3c-0.9-2-2.5-3.5-5-4.7c-4.7-2.4-9.4-4.1-14.3-4.9
				c-4.9-0.9-9.6-1.3-14.3-1.3c-8.6,0-16.3,1.2-23.1,3.5c-6.8,2.4-12.5,5.8-17.2,10.3c-4.7,4.5-8.2,9.9-10.7,16.1
				c-2.5,6.3-3.7,13.3-3.7,21.1c0,10,2.1,18.8,6.2,26.3c4.1,7.5,10.1,13.4,18,17.5c7.9,4.2,17.5,6.3,28.8,6.3
				c5.1,0,10.3-0.4,15.4-1.3c5.1-0.8,9.9-2,14.3-3.5c2.5-0.8,4.4-2.2,5.5-4.2c1.2-2,1.8-4.3,1.8-7.1V87.7
				C675.5,84.4,674.6,82,672.9,80.2z"/>
		</g>
		<path class="st1" d="M418.3,147.2c-7.3,0-13.5-2.4-18-7c-3.7-3.7-5.9-8.5-6.5-14.1c-1,1-2.1,1.9-3.2,2.7
			c-3.7,2.6-8.2,3.9-13.4,3.9c-5,0-9.5-1.3-13.2-3.8c-1.1-0.8-2.2-1.6-3.2-2.6c-0.7,5.5-2.8,10.2-6.4,13.8
			c-3.1,3.2-8.8,7.1-18.2,7.1c-7.3,0-13.5-2.4-18-7c-4.4-4.5-6.8-10.6-6.8-17.8V45.2c0-9.4,4-15.1,7.4-18.2
			c4.6-4.3,10.8-6.5,18.1-6.5c5.9,0,10.9,1.4,15,4c3.8,2.5,6.9,6,9.5,10.8l16.1,28.8l16.1-28.8c2.9-4.9,6-8.4,9.7-10.8
			c4.1-2.7,9.1-4,15-4c7.2,0,13.4,2.4,17.9,6.8c3.1,3.1,6.9,8.8,6.9,17.9v77.3c0,7.1-2.3,13.2-6.6,17.6
			C433.3,143.4,427.7,147.2,418.3,147.2z"/>
		<path class="st2" d="M418.3,138.5c-4.9,0-8.9-1.5-11.8-4.4c-2.8-2.9-4.3-6.8-4.3-11.7V96l-11.4,19.8c-1.7,2.7-3.5,4.6-5.4,6
			c-2.2,1.5-5,2.3-8.3,2.3c-3.2,0-6-0.8-8.2-2.3c-2-1.4-3.8-3.4-5.4-6l-11.3-19.5v26.2c0,4.9-1.4,8.8-4.2,11.6
			c-2.8,2.9-6.8,4.4-11.9,4.4c-4.9,0-8.9-1.5-11.8-4.4c-2.8-2.9-4.3-6.8-4.3-11.7V45.2c0-5,1.6-9,4.6-11.9c3-2.8,7-4.2,12.1-4.2
			c4.1,0,7.6,0.9,10.2,2.6c2.5,1.7,4.7,4.2,6.7,7.7L377.5,82l23.7-42.5c2.1-3.6,4.3-6.1,6.8-7.7c2.6-1.7,6.1-2.6,10.2-2.6
			c4.9,0,8.9,1.4,11.7,4.3c2.9,2.8,4.3,6.8,4.3,11.8v77.3c0,4.9-1.4,8.8-4.2,11.6C427.3,137.1,423.3,138.5,418.3,138.5z"/>
		<g>
			
				<linearGradient id="SVGID_00000162340527937596899500000016675906920181766554_" gradientUnits="userSpaceOnUse" x1="377.2029" y1="134.1909" x2="377.2029" y2="33.5346">
				<stop  offset="0" style="stop-color:#000000;stop-opacity:0.2"/>
				<stop  offset="0.4" style="stop-color:#110F0F;stop-opacity:0.1"/>
				<stop  offset="0.5" style="stop-color:#000000;stop-opacity:0"/>
				<stop  offset="1" style="stop-color:#000000;stop-opacity:0"/>
			</linearGradient>
			<path style="fill:url(#SVGID_00000162340527937596899500000016675906920181766554_);" d="M426.9,36.5c-2-2-4.9-3-8.6-3
				c-3.3,0-5.9,0.6-7.8,1.9c-1.9,1.3-3.7,3.3-5.4,6.2L377.5,91l-27.7-49.4c-1.6-2.9-3.3-4.9-5.3-6.2c-1.9-1.3-4.5-1.9-7.8-1.9
				c-3.9,0-7,1-9.1,3c-2.2,2-3.2,4.9-3.2,8.7v77.3c0,3.7,1,6.6,3,8.6c2,2,4.9,3.1,8.6,3.1c3.8,0,6.7-1,8.7-3.1c2-2,2.9-4.9,2.9-8.6
				V80l19.5,33.6c1.2,2,2.6,3.6,4.1,4.6c1.5,1,3.4,1.5,5.7,1.5c2.4,0,4.4-0.5,5.8-1.5c1.4-1,2.8-2.6,4.1-4.6l19.6-33.9v42.8
				c0,3.7,1,6.6,3,8.6c2,2,4.9,3.1,8.6,3.1c3.8,0,6.7-1,8.7-3.1c2-2,2.9-4.9,2.9-8.6V45.2C429.9,41.4,428.9,38.5,426.9,36.5z"/>
		</g>
		<path class="st1" d="M510,147.2c-7.6,0-14.2-2.5-18.9-7.3c-4.7-4.7-7.1-11.2-7.1-18.7V68.7h-8.9c-7,0-12.9-2.3-17.2-6.5
			c-4.3-4.3-6.6-10.1-6.6-17c0-8.8,3.6-14.2,6.7-17.1c4.3-4.2,10.2-6.4,17.1-6.4h69.8c6.9,0,12.8,2.2,17.1,6.3
			c3.1,3,6.7,8.3,6.7,17.2c0,6.8-2.3,12.7-6.6,17c-4.3,4.3-10.3,6.5-17.2,6.5H536v52.5c0,7.4-2.3,13.8-6.8,18.5
			C526,143.2,520,147.2,510,147.2z"/>
		<path class="st2" d="M510,138.5c-5.3,0-9.6-1.6-12.7-4.7c-3.1-3.1-4.6-7.3-4.6-12.6V60h-17.6c-4.6,0-8.3-1.3-11-4
			c-2.7-2.6-4-6.3-4-10.8c0-4.6,1.4-8.3,4.1-10.9c2.7-2.6,6.4-3.9,11-3.9h69.8c4.6,0,8.3,1.3,11,3.9c2.7,2.6,4.1,6.3,4.1,10.9
			c0,4.5-1.4,8.2-4,10.8c-2.7,2.6-6.4,4-11,4h-17.6v61.2c0,5.2-1.5,9.4-4.4,12.5C519.8,136.9,515.5,138.5,510,138.5z"/>
		<g>
			
				<linearGradient id="SVGID_00000151541916169839789640000006983482929578738319_" gradientUnits="userSpaceOnUse" x1="509.9811" y1="134.1909" x2="509.9811" y2="34.788">
				<stop  offset="0" style="stop-color:#000000;stop-opacity:0.2"/>
				<stop  offset="0.4" style="stop-color:#110F0F;stop-opacity:0.1"/>
				<stop  offset="0.5" style="stop-color:#000000;stop-opacity:0"/>
				<stop  offset="1" style="stop-color:#000000;stop-opacity:0"/>
			</linearGradient>
			<path style="fill:url(#SVGID_00000151541916169839789640000006983482929578738319_);" d="M510,134.2c-4.1,0-7.3-1.1-9.5-3.4
				c-2.2-2.3-3.4-5.5-3.4-9.5V55.7h-22c-3.5,0-6.1-0.9-7.9-2.7c-1.8-1.8-2.7-4.4-2.7-7.7c0-3.4,0.9-6,2.7-7.8
				c1.8-1.8,4.5-2.6,7.9-2.6h69.8c3.5,0,6.1,0.9,7.9,2.6c1.8,1.8,2.7,4.4,2.7,7.8c0,3.3-0.9,5.9-2.7,7.7c-1.8,1.8-4.5,2.7-7.9,2.7
				h-22v65.6c0,4.1-1.1,7.3-3.2,9.5C517.5,133.1,514.3,134.2,510,134.2z"/>
		</g>
	</g>
</g>
</svg>
